<?xml version="1.0" encoding="utf-8"?>
<!-- Generator: Adobe Illustrator 24.3.0, SVG Export Plug-In . SVG Version: 6.00 Build 0)  -->
<svg version="1.1" id="Livello_1" xmlns="http://www.w3.org/2000/svg" xmlns:xlink="http://www.w3.org/1999/xlink" x="0px" y="0px"
	 viewBox="0 0 80.3 144.2" style="enable-background:new 0 0 80.3 144.2;" xml:space="preserve">
<style type="text/css">
	.st0{fill:#FFFFFF;}
</style>
<g>
	<g>
		<path class="st0" d="M49.4,68.5c0,0.2,0,0.3,0.1,0.5C49.4,68.8,49.4,68.7,49.4,68.5z M39,143.5C38.9,143.5,38,143.1,39,143.5
			L39,143.5z M39.6,143.7L39.6,143.7l-0.3-0.1c-0.2,0-0.5-0.2-0.4-0.2c0,0,0,0,0,0c0,0,0.1,0.1,0.1,0.1c0.1,0,0.1,0,0,0
			C39.3,143.6,39.5,143.7,39.6,143.7C39.6,143.7,39.6,143.7,39.6,143.7L39.6,143.7z M39.6,143.7C39.6,143.7,39.6,143.7,39.6,143.7
			C39.6,143.7,39.6,143.7,39.6,143.7z M49,67.1c0,0.2,0,0.4,0,0.5c0,0.2,0.1,0.3,0.1,0.4c0,0.1,0.1,0.2,0.2,1.6
			c0.1,0.7-0.1-2.2,0-1.5c0-0.4-0.1-0.8-0.1-1.2c0-0.1,0-0.1,0-0.2C49.1,66.9,49,67,49,67.1z M49.2,66.7
			C49.2,66.7,49.2,66.7,49.2,66.7C49.2,66.7,49.2,66.7,49.2,66.7C49.2,66.7,49.2,66.7,49.2,66.7C49.2,66.7,49.2,66.7,49.2,66.7z
			 M50.8,78.5C50.8,78.5,50.7,78.5,50.8,78.5C50.7,78.6,50.7,78.6,50.8,78.5L50.8,78.5z M38.5,143.3c0.1,0,0.1,0.1,0.2,0.1l0.2,0.1
			c-0.1,0-0.1-0.1-0.2-0.1C38.6,143.3,38.5,143.3,38.5,143.3z M50.3,79L50.3,79L50.3,79C50.3,78.9,50.3,79,50.3,79
			C50.3,79,50.3,79,50.3,79L50.3,79z M49.4,139.5C49.4,139.5,49.4,139.5,49.4,139.5C49.4,139.5,49.4,139.5,49.4,139.5
			C49.4,139.5,49.4,139.5,49.4,139.5z M49.3,68.1c0,0.1,0,0.3,0.1,0.4C49.4,68.3,49.3,68.2,49.3,68.1z M49.5,43.9c0,0,0,0.1,0,0.1
			C49.5,44,49.6,43.9,49.5,43.9L49.5,43.9z M50.7,78.4C50.7,78.4,50.7,78.4,50.7,78.4L50.7,78.4L50.7,78.4z M50.2,41.8
			c0.2-0.5,0.7-0.9,1.1-1.2c-0.5,0.3-0.9,0.7-1.2,1.1c-0.3,0.5-0.3,0.8-0.4,1.2c-0.1,0.3-0.1,0.7-0.1,1c0.1-0.3,0.3-0.7,0.4-1.1
			C50,42.5,50,42.2,50.2,41.8z M48.3,123.2c-0.1,0.2-0.1,0.4-0.2,0.6c-0.2,0.9-0.4,1.8-0.7,2.9C47.7,125.7,48.1,124.4,48.3,123.2z
			 M39.8,143.7c0,0-0.1,0-0.1,0C39.7,143.7,39.7,143.7,39.8,143.7L39.8,143.7z M41.4,143.9c-0.6,0.2,4.7,0.1,0.9,0
			C41.6,143.9,41.9,144.1,41.4,143.9z M47.4,126.8c-0.5,1.5-0.9,2.6-0.9,3.1C46.9,128.7,47.1,127.7,47.4,126.8z M59.5,4.3
			c0-0.1,0-0.1,0-0.1C59.4,4.2,59.4,4.2,59.5,4.3z M49.1,66.1L49.1,66.1L49.1,66.1L49.1,66.1c0-0.2,0-0.2-0.1-0.2
			C49,65.9,49,65.9,49.1,66.1C49,66.1,49,66.1,49.1,66.1L49.1,66.1L49.1,66.1C49,66.1,49,66.1,49.1,66.1
			C49.1,66.1,49.1,66.1,49.1,66.1L49.1,66.1z M40.1,143.8C40.1,143.8,40.1,143.8,40.1,143.8c-0.1,0-0.2,0-0.3,0l0.1,0L40.1,143.8z
			 M59.6,3.4c0,0-0.1,0-0.1,0c0.2,0,0.3,0.1,0.4,0.1C59.8,3.5,59.7,3.5,59.6,3.4z M46.4,133.5C46.4,133.5,46.4,133.5,46.4,133.5
			C46.4,133.5,46.4,133.5,46.4,133.5z M50.7,78.5C50.7,78.4,50.7,78.4,50.7,78.5L50.7,78.5C50.7,78.4,50.7,78.4,50.7,78.5z
			 M38.6,141.3L38.6,141.3L38.6,141.3C38.7,141.3,38.7,141.3,38.6,141.3L38.6,141.3C38.6,141.3,38.6,141.3,38.6,141.3z M50.3,96.8
			C50.3,96.8,50.3,96.8,50.3,96.8L50.3,96.8L50.3,96.8z M39.5,140L39.5,140C39.6,139.9,39.6,139.9,39.5,140L39.5,140
			C39.5,140,39.5,140,39.5,140z M50.2,96.8L50.2,96.8L50.2,96.8L50.2,96.8C50.2,96.8,50.2,96.8,50.2,96.8z M38.4,141.4l0.3-0.3h0
			c-0.1,0-0.1,0-0.2,0l-0.1,0.1C38.4,141.2,38.4,141.3,38.4,141.4z M50.3,96.8C50.3,96.8,50.3,96.8,50.3,96.8
			C50.3,96.8,50.3,96.8,50.3,96.8L50.3,96.8z M31.7,144.2c-0.2,0-0.5,0-0.8,0c0.8,0.2,1.4,0.1,2.1,0.1
			C32.5,144.2,32.1,144.2,31.7,144.2z M49.3,139.8l-0.2-0.2c-0.1-0.1-0.1-0.2-0.2-0.3l0.2,0.3C49.2,139.7,49.3,139.8,49.3,139.8
			C49.4,139.9,49.4,139.9,49.3,139.8C49.3,139.9,49.3,139.8,49.3,139.8z M41,119.7c0.3,1.5,0.4,1.7,0.4,1.8
			c-0.1-0.7-0.2-1.4-0.3-2.2c0-0.4-0.1-0.7-0.1-1.1c0-0.4,0.1-0.7,0.1-1.1l0,0.3l0.1-0.9c-0.1,0.5-0.1,0.9-0.2,1.4
			C40.9,118.5,40.9,119,41,119.7z M49,101c0.1-0.7,0.1-1,0.2-1.3C49.1,99.7,49,100,49,101z M49.4,139.9
			C49.4,139.9,49.4,139.9,49.4,139.9C49.4,139.9,49.4,139.9,49.4,139.9C49.4,139.9,49.4,139.9,49.4,139.9z M49.3,139.9l-0.2-0.2
			c-0.2-0.2-0.4-0.5-0.5-0.8c-0.1-0.3-0.5-0.4-0.7-0.6c0.2,0.1,0.5,0.2,0.7,0.6c0.1,0.2,0.3,0.5,0.5,0.8
			C49.1,139.8,49.2,139.9,49.3,139.9c0,0.1,0.1,0.1,0.1,0.2c0,0,0,0,0,0l0,0C49.4,140.1,49.4,140.1,49.3,139.9L49.3,139.9z
			 M49.1,140.2c-0.1-0.1-0.1-0.2-0.1-0.2c-0.4-0.5-0.4-0.6-0.5-0.9c-0.1,0-0.1,0-0.2,0l0,0c0.2,0.3,0.4,0.6,0.7,0.9
			C49,140.1,49.1,140.1,49.1,140.2z M41.2,134L41.2,134C41.3,134.2,41.3,134.1,41.2,134z M37.7,141.9
			C37.7,141.9,37.7,141.9,37.7,141.9C37.7,141.9,37.7,141.9,37.7,141.9C37.7,141.9,37.7,141.9,37.7,141.9z M39.6,143.7
			C39.6,143.7,39.6,143.7,39.6,143.7L39.6,143.7C39.6,143.7,39.6,143.7,39.6,143.7l0.1-0.2C39.6,143.5,39.6,143.6,39.6,143.7
			L39.6,143.7z M50,97.2c0,0.2-0.1,0.4-0.2,0.6c0.1,0,0.2,0,0.3,0C50.1,97.6,50.1,97.4,50,97.2z M41,133.8L41,133.8L41,133.8
			C41,133.8,41,133.8,41,133.8L41,133.8z M41,134.1C41,134,41,134,41,134.1L41,134.1l0.1,0c0,0,0,0,0,0c0,0,0,0,0,0l0-0.1
			c0,0,0,0-0.1,0c0,0,0,0,0-0.1L41,134.1C41,134,41,134,41,134.1C41,134,41,134,41,134.1L41,134.1C40.9,134.1,40.9,134.1,41,134.1z
			 M40.9,134.1L40.9,134.1C40.9,134.1,40.9,134.1,40.9,134.1C40.9,134.1,40.9,134.1,40.9,134.1z M50.5,95.6
			C50.5,95.6,50.5,95.6,50.5,95.6C50.5,95.6,50.5,95.6,50.5,95.6L50.5,95.6L50.5,95.6L50.5,95.6L50.5,95.6L50.5,95.6z M50.6,78.2
			L50.6,78.2C50.6,78.2,50.6,78.2,50.6,78.2L50.6,78.2z M39.6,143.7C39.6,143.7,39.6,143.7,39.6,143.7
			C39.6,143.7,39.6,143.7,39.6,143.7C39.6,143.7,39.6,143.7,39.6,143.7C39.7,143.7,39.7,143.7,39.6,143.7L39.6,143.7L39.6,143.7
			L39.6,143.7L39.6,143.7z M41.1,134.1l0.1-0.2c0,0,0,0-0.1,0c0,0,0,0,0,0L41.1,134.1C41.1,134.1,41.1,134.1,41.1,134.1z
			 M49.4,113.8C49.4,113.8,49.4,113.8,49.4,113.8C49.4,114,49.4,114,49.4,113.8z M37.9,98.5C37.9,98.6,37.9,98.6,37.9,98.5
			C37.9,98.7,37.9,98.6,37.9,98.5z M41.4,131.6l-0.2,0.5l0.1,0.8L41.4,131.6z M41.3,129.5c0-0.4,0.1-0.9,0.1-1.3
			C41.3,128,41.3,128.7,41.3,129.5z M41.7,116.8c0-0.3,0.1-0.6,0.1-0.9l-0.1,0.1C41.6,117.3,41.5,118.2,41.7,116.8z M42.4,109.2
			c0,0,0-0.2,0-0.3l0-0.2c-0.1-0.6-0.2-1.1-0.4-1.7c-0.1-0.2-0.2-0.7,0,0.6c0.1,0.4,0.2,0.9,0.3,1.3c0.1,0.4,0.1,0.5,0.1,0.7
			c0,0.2-0.1,0.5-0.1,0.7c0.1-0.3,0.2-0.6,0.1-0.8C42.4,109.5,42.4,109.3,42.4,109.2z M27,137.4c0,0.1-0.1,0.1-0.1,0.2
			c-0.1,0.1-0.1,0.2-0.2,0.4c0-0.1,0.1-0.3,0.2-0.4C26.9,137.6,26.9,137.5,27,137.4z M41.4,122.1c-0.1-0.1-0.1-0.2-0.2-0.4
			c0.2,0.5,0.2,1.2,0.2,1.8C41.5,123,41.5,122.5,41.4,122.1z M41.2,129.8c0,0.1,0,0.2,0,0.3c-0.1-0.4-0.2,1.1-0.2,2.6
			C41.1,132.6,41.2,131.3,41.2,129.8z M41.3,105.9c0.1,0.7,0.3,1.4,0.4,1.9c0.1,0.3,0.1,0.5,0.2,0.8c0,0.1,0.1,0.2,0.1,0.4
			c0,0.2,0.1,0.3,0.1,0.5l-0.1-0.5c0-0.1-0.1-0.3-0.1-0.4c-0.1-0.3-0.1-0.5-0.2-0.8c-0.1-0.6-0.2-1.3-0.3-2.1
			c-0.1-0.5-0.1-0.1-0.1,0.2C41.4,106,41.4,106.3,41.3,105.9z M37.7,94.9c0,0.1,0,0.1,0,0.1C37.8,95.3,37.9,95.4,37.7,94.9z
			 M42,105.2c-0.2-2-0.2-1.5-0.3-1.8L42,105.2c0,0.6,0.1,1.1,0.2,1.7C42.1,106.3,42.1,105.7,42,105.2L42,105.2z M41.1,127.4l0.1-1
			l-0.1-0.2L41.1,127.4z M39.7,101.9l2,0.1l-0.9-0.1L39.7,101.9z M42,110.9c0-0.3,0.1-0.5,0.1-0.8c0-0.1,0.1-0.3,0.1-0.4
			c0-0.1,0-0.2,0-0.3C42.2,109.7,42,110.4,42,110.9z M26.6,138.5C26.6,138.5,26.6,138.5,26.6,138.5
			C26.6,138.5,26.6,138.4,26.6,138.5C26.6,138.4,26.6,138.4,26.6,138.5z M26.6,138.2c0,0,0,0.1,0,0.2c0-0.1,0-0.2,0-0.3
			C26.6,138.2,26.6,138.2,26.6,138.2z M56.6,32.3c-0.1,0-0.1,0.1-0.2,0.1c0,0-0.1,0-0.1,0.1c-0.1,0-0.1,0.1-0.2,0.1
			c-0.2,0.2-0.5,0.4-0.9,0.6l0.7-0.4l0.6-0.4L56.6,32.3z M41.9,106.7c-0.1-0.5-0.1-0.8-0.2-1.2c-0.1-0.3-0.1-0.6-0.1-0.9
			c0.1,0.7,0.2,1.5,0.4,2.3C42,107,42,107,41.9,106.7z M41.6,123.6c0-0.4,0.2-1.5,0-2.3c-0.1-0.9-0.2-1.4,0-0.5
			c0.3,1.4,0.2,1.9,0.2,2.3c0,0.4-0.1,0.6-0.2,1.3c0.2-1.1-0.1,3.6,0.1,3l0.1-2.5c0,0,0,0.9,0.1,0.2c-0.1-0.2,0.2-2.6-0.2-4.7
			c-0.4-2-0.5-0.7-0.4,1.2c0,0,0.1,0.1,0.1,0.3C41.6,122,41.7,122.5,41.6,123.6z M41.4,121.5L41.4,121.5l0,0.2
			C41.4,121.7,41.4,121.6,41.4,121.5z M41.8,112.4c-0.1,0.5-0.4,1.4-0.4,1.6C41.5,113.5,41.6,113,41.8,112.4z M41.4,103.5
			c0.1,0.5,0.1,0.8,0.2,1.2c-0.1-0.6-0.1-1.1-0.2-1.5C41.4,103.3,41.4,103.4,41.4,103.5z M41.4,103.2c0-0.1,0-0.2,0-0.2
			C41.4,103,41.4,103.1,41.4,103.2z M41.8,112.4C41.8,112.4,41.8,112.3,41.8,112.4l0-0.1l0,0c0.1-0.2,0.1-0.2,0,0
			C41.8,112.3,41.8,112.3,41.8,112.4c0,0,0,0.1,0,0.1C41.5,113.7,41.7,112.7,41.8,112.4c0-0.1,0-0.1,0-0.1
			C41.8,112.3,41.8,112.3,41.8,112.4c-0.1,0.6-0.3,1.3-0.4,2l-0.2,2.1c0.1-0.4,0.1-0.9,0.2-1.6c0-0.6,0.2-1.4,0.5-2.4
			c0,0.4-0.2,1.1-0.2,1.5c0,0.5,0,0.7,0.1,0c0.6-2.5,0.4-1.8,0.6-3.3c-0.9,4,0.2-1.2-0.5,1.7c0.2-0.8,0.3-1.5,0.4-2.1
			C42.1,111.1,42,111.7,41.8,112.4z M26.6,138.7c0-0.1,0-0.1,0-0.2C26.6,138.5,26.6,138.6,26.6,138.7c0,0,0,0,0,0.1
			c0,0,0,0.1-0.1,0.1c0,0,0.1,0,0.1-0.1C26.6,138.8,26.6,138.7,26.6,138.7z M37.7,95.2L37.7,95.2c0.1,0.2,0.1,0.4,0.2,0.6
			c0,0.2,0,0.4,0,0.6c0,0.4,0,0.9,0,1.2c0,0.4,0.1,0.8,0.1,0.9c0-0.5,0-0.9,0-2c0-0.1,0-0.3,0-0.5c0-0.1,0-0.2,0-0.4
			C37.8,95.5,37.8,95.4,37.7,95.2C37.7,95.1,37.7,95.1,37.7,95.2c0-0.1,0-0.2,0-0.2C37.7,95,37.7,95.1,37.7,95.2
			c0.1-0.1,0.1-0.2,0-0.2c0-0.1,0-0.1,0-0.2c0-0.1,0-0.1,0-0.2l0.2,0l0,0.1l0.1-0.1l0,0l0.1-0.2l0-0.1l-0.1,0.3l-0.2-0.1
			c0-0.1,0-0.1,0,0l-0.2,0c0-0.1-0.1-0.2-0.1-0.3l0,0c0,0.1,0,0.2,0.1,0.3l-0.6-0.1l0,0l0.6,0.1c0,0.1,0.1,0.3,0.1,0.4l0,0
			c0,0.1-0.1,0.3-0.1,0.5c-0.1,0.8,0.2-0.2,0,0.9c0-0.1,0-0.1,0-0.2c0-0.2,0-0.2,0-0.3c-0.1-0.3-0.2-0.5-0.2-0.6
			c-0.1-0.3-0.1-0.3-0.1-0.3l0.3,0.9c0,0,0,0,0,0.1l0,0.2l0,0.2c0,0.1,0,0.2-0.1,0.4c0-0.1,0-0.2,0.1-0.3l0,0.3c0-0.1,0-0.3,0-0.4
			C37.5,95.9,37.6,95.5,37.7,95.2z M37.6,94.8C37.6,94.7,37.6,94.7,37.6,94.8C37.6,94.8,37.6,94.8,37.6,94.8z M37.5,94.5l0.2,0
			c0,0.1,0,0.1-0.1,0.2C37.6,94.6,37.6,94.6,37.5,94.5z M41.4,103.5c0,0,0-0.1,0-0.1C41.4,103.6,41.4,103.6,41.4,103.5z M35.8,103.3
			c0-0.2,0,0.2,0,1.1l0-2C35.8,102.6,35.7,102.7,35.8,103.3z M34.7,115.7l0.2,1.2c-0.1-0.6-0.3-2.6-0.3-2.5L34.7,115.7z M35.7,101.1
			l0,3.3c0-1.3,0-2.6,0.1-3.9L35.7,101.1z M37.9,99.8c0,0.1,0,0.2,0.1,0.3c0-0.2-0.1-0.4-0.1-0.5c0-0.2,0-0.2,0-0.4l0-0.2
			c0,0.1,0,0.2,0,0.2C37.9,99.4,37.9,99.5,37.9,99.8z M37.9,142.8c0,0,0,0.1,0.1,0.1c0.1,0.1,0.2,0.2,0.4,0.4c0,0,0,0,0,0
			c-0.1,0-0.1-0.1-0.2-0.1C38.2,143,38,142.9,37.9,142.8z M35.5,143.2c-0.3,0.1-0.6,0.3-0.7,0.3l0.5-0.1l0.5-0.4
			c0.2-0.2,0.3-0.3,0.4-0.5c-0.1,0.1-0.2,0.2-0.3,0.3C35.9,143,35.6,143.2,35.5,143.2z M37.8,142.5
			C37.8,142.5,37.8,142.5,37.8,142.5c0-0.1,0-0.3-0.1-0.4C37.8,142.2,37.7,142.3,37.8,142.5z M35.1,117.7c0-0.6-0.1-1-0.1-1.5
			c-0.1-0.4-0.1-0.8-0.1-1.2c0,0.3,0,0.6,0.1,1.1C34.9,116.6,35,117,35.1,117.7c-0.1,0.4-0.1,0.9-0.2,1.3c-0.1,0.5-0.1,0.9-0.3,1.4
			c-0.2,0.3-0.3,0.7-0.3,1c0,0.2,0,0.5,0,0.7l-0.1,0.4l0.1,1.1c0-0.7,0-1.4,0-2.2c0-0.2,0.2-0.6,0.3-0.9c0.2-0.6,0.2-1,0.3-1.5
			C35,118.5,35,118.1,35.1,117.7z M35.1,108.3c-0.2,0.4,0.4-1.5-0.5,1.6c0.1-0.1,0.1-0.2,0.1-0.3c0-0.1,0.1-0.3,0.2-0.6
			C35,108.9,35,108.6,35.1,108.3z M35.8,102.4c0-0.2,0-0.4,0-0.9L35.8,102.4z M34,128.1l0,0.3c0-0.7,0-1.4,0-2.1
			C34.1,126.9,34.1,127.5,34,128.1z M35.4,106.7c0-0.1,0.1-0.3,0.1-0.6C35.5,106.4,35.4,106.6,35.4,106.7c-0.1,0.2-0.1,0.4-0.2,0.6
			c-0.1,0.3-0.2,0.5-0.2,0.7c-0.1,0.4-0.1,0.5-0.1,0.5s0.1-0.3,0.3-0.8c0.1-0.5,0.4-1.1,0.5-2.1c0,0.3-0.1,0.6-0.1,0.8
			c-0.1,0.2-0.1,0.4-0.2,0.5c0,0.1-0.1,0.1,0,0C35.4,106.9,35.4,106.8,35.4,106.7z M34.7,109.8c0.1-0.2,0.2-0.6,0-0.2
			C34.6,110.3,34.6,110.1,34.7,109.8z M37.9,142.7C37.9,142.7,37.9,142.7,37.9,142.7C37.9,142.7,37.9,142.7,37.9,142.7
			C37.8,142.7,37.9,142.7,37.9,142.7z M39.3,101.5c-0.1,0-0.1,0-0.2,0c-0.1,0-0.2,0-0.3,0c-0.2,0-0.3-0.1-0.5-0.2
			c-0.2-0.1-0.3-0.2-0.4-0.4l-0.1-0.3l-0.1-0.2c0,0.1,0,0.2,0.2,0.6c0.1,0.2,0.2,0.4,0.5,0.5c0.3,0.1,0.8,0.2,1,0.2l-0.5-0.1
			c-0.2-0.1-0.4-0.1-0.6-0.2C38.7,101.5,39.1,101.5,39.3,101.5c0.1,0,0.3,0,0.4,0.1c0.3,0,0.5,0.1,0.6,0.1c-0.1,0-0.3,0-0.6-0.1
			C39.7,101.6,39.5,101.6,39.3,101.5z M36,103.6c0.1-1.9,0-1.5-0.1-0.4c0,0.6,0,1.2,0,1.8C35.9,104.6,36,103,36,103.6z M37.5,96.9
			c0-0.1,0-0.2,0-0.3C37.5,96.8,37.5,96.9,37.5,96.9z M38.1,94.3L38.1,94.3L38,94.8C38.1,94.7,38.1,94.5,38.1,94.3z M40,136.3
			c0-0.1,0.1-0.3,0.1-0.5l0-0.1c0-0.1,0-0.1,0-0.1c0-0.1,0.1-0.3,0.1-0.3l0,0c0,0,0-0.1,0-0.2c0-0.1,0-0.3,0-0.4
			c0,0.1-0.1,0.5,0-0.2c-0.1,0.3-0.1,1-0.1,0.9c0,0-0.1,0.1-0.1,0.3c0,0.2,0,0.2,0,0.2c0,0,0,0.1,0,0.2C40.1,136,40,136.2,40,136.3z
			 M37.8,100.3c0-0.1,0-0.2-0.1-0.3C37.8,100.1,37.8,100.2,37.8,100.3z M37.6,94.2L37.6,94.2C37.5,94.2,37.5,94.3,37.6,94.2z
			 M38,94.6L38,94.6L38,94.6C38,94.6,38,94.6,38,94.6z M36.7,142c0-0.6-0.1-0.7-0.1-0.6c0,0.1,0,0.3,0,0.3
			C36.6,141.7,36.6,141.9,36.7,142c-0.1,0-0.1,0.1-0.1,0.1c0,0.3,0,0.3,0,0.4c0,0.1,0.1,0,0,0.2c0.1-0.2,0.1-0.3,0.1-0.5
			C36.7,142.1,36.7,142.1,36.7,142C36.7,142,36.7,142,36.7,142z M36.8,94.3c0.2,0.6,0.4,1.3,0.4,1.4c0.1,0.1-0.1-0.6-0.1-0.8
			L36.8,94.3L36.8,94.3z M58.8,5L58.8,5C58.9,5,58.9,5,58.8,5z M37.6,94.2l-0.2,0c0,0,0,0,0,0L37.6,94.2
			C37.6,94.2,37.6,94.2,37.6,94.2z M37.6,96.8c0,0,0,0.3-0.1,0.1c0.1,0.7,0.2,1.4,0.3,2.1C37.8,98.3,37.6,97.6,37.6,96.8z M59.4,4.2
			L59.4,4.2L59.4,4.2L59.4,4.2z M46.6,135.2L46.6,135.2L46.6,135.2L46.6,135.2z M46.6,135.2L46.6,135.2L46.6,135.2L46.6,135.2
			L46.6,135.2z M46.6,135.2C46.6,135.2,46.6,135.2,46.6,135.2L46.6,135.2L46.6,135.2C46.6,135.2,46.6,135.2,46.6,135.2L46.6,135.2
			L46.6,135.2L46.6,135.2z M46.6,135.2L46.6,135.2L46.6,135.2L46.6,135.2z M49.3,139.7C49.3,139.7,49.3,139.7,49.3,139.7
			C49.3,139.7,49.3,139.7,49.3,139.7c0,0,0,0.1,0,0.1c0,0,0,0,0,0c0,0,0,0,0,0c0,0,0,0.1,0,0.1l0,0c0,0,0,0,0,0c0,0,0,0,0-0.1l0-0.1
			c0,0,0,0,0,0c0,0,0,0,0,0L49.3,139.7z M43.8,36.1L43.8,36.1L43.8,36.1C43.8,36.1,43.8,36.1,43.8,36.1z M38.6,140.8L38.6,140.8
			L38.6,140.8C38.7,140.8,38.6,140.8,38.6,140.8C38.6,140.8,38.6,140.8,38.6,140.8C38.6,140.8,38.6,140.8,38.6,140.8z M43.8,36.1
			L43.8,36.1C43.8,36.1,43.8,36.1,43.8,36.1L43.8,36.1z M59.4,4.2L59.4,4.2C59.4,4.2,59.4,4.2,59.4,4.2C59.4,4.1,59.4,4.1,59.4,4.2z
			 M38.2,141.3C38.2,141.3,38.2,141.3,38.2,141.3L38.2,141.3C38.2,141.3,38.2,141.2,38.2,141.3C38.2,141.3,38.2,141.3,38.2,141.3z
			 M59.8,15.6L59.8,15.6C59.8,15.5,59.8,15.5,59.8,15.6L59.8,15.6z M43.8,36.1L43.8,36.1L43.8,36.1C43.8,36.1,43.8,36.1,43.8,36.1z
			 M44.1,36.2C44.1,36.2,44.1,36.2,44.1,36.2L44.1,36.2C44.1,36.2,44.1,36.2,44.1,36.2C44.1,36.2,44.1,36.2,44.1,36.2L44.1,36.2
			L44.1,36.2L44.1,36.2L44.1,36.2C44.1,36.2,44.1,36.2,44.1,36.2C44.1,36.2,44.1,36.2,44.1,36.2L44.1,36.2L44.1,36.2L44.1,36.2
			L44.1,36.2c-0.1,0-0.1,0-0.1,0h0l0,0h0c0,0,0,0,0,0h0l0,0c0,0,0,0,0,0c0,0,0,0,0,0c0,0,0,0,0,0h0c0,0,0,0,0,0h0c0,0,0,0,0,0h0
			C44,36.2,44,36.2,44.1,36.2L44.1,36.2C44,36.2,44.1,36.2,44.1,36.2L44.1,36.2C44.1,36.2,44.1,36.2,44.1,36.2L44.1,36.2
			C44.1,36.2,44.1,36.2,44.1,36.2C44.1,36.2,44.1,36.2,44.1,36.2C44.1,36.2,44.1,36.2,44.1,36.2C44.1,36.2,44.1,36.2,44.1,36.2z
			 M49.5,78.8L49.5,78.8C49.5,78.8,49.5,78.8,49.5,78.8C49.5,78.8,49.5,78.8,49.5,78.8L49.5,78.8z M50.5,78.1
			C50.5,78.1,50.5,78.1,50.5,78.1c0,0-0.1,0-0.1,0C50.4,78.1,50.4,78.1,50.5,78.1L50.5,78.1z M44.1,36.2
			C44.1,36.2,44.1,36.3,44.1,36.2C44.1,36.2,44.1,36.2,44.1,36.2C44.1,36.2,44.1,36.3,44.1,36.2L44.1,36.2
			C44.1,36.2,44.1,36.2,44.1,36.2C44.1,36.2,44.1,36.2,44.1,36.2C44.1,36.2,44.1,36.2,44.1,36.2z M44.2,36.2L44.2,36.2
			C44.2,36.2,44.2,36.2,44.2,36.2C44.1,36.2,44.1,36.2,44.2,36.2C44.2,36.2,44.2,36.2,44.2,36.2z M49.5,78.7L49.5,78.7
			C49.5,78.8,49.5,78.8,49.5,78.7L49.5,78.7L49.5,78.7z M46.3,133.7L46.3,133.7C46.3,133.8,46.3,133.7,46.3,133.7c0,0,0,0,0,0.1
			C46.3,133.8,46.3,133.8,46.3,133.7L46.3,133.7L46.3,133.7z M44.1,36.2C44,36.2,44,36.2,44.1,36.2C44,36.2,44,36.2,44.1,36.2
			C44,36.2,44,36.2,44.1,36.2C44,36.2,44,36.2,44.1,36.2L44.1,36.2C44,36.2,44,36.2,44.1,36.2C44,36.2,44,36.2,44.1,36.2
			C44,36.2,44,36.2,44.1,36.2C44,36.2,44.1,36.2,44.1,36.2C44.1,36.2,44.1,36.2,44.1,36.2C44,36.2,44,36.2,44.1,36.2z M50.4,96.8
			c0-0.1,0-0.1,0.1-0.2l-0.2,0.2l0,0C50.3,96.8,50.4,96.8,50.4,96.8z M44.2,36.2C44.2,36.2,44.2,36.2,44.2,36.2L44.2,36.2
			C44.3,36.2,44.3,36.2,44.2,36.2L44.2,36.2L44.2,36.2L44.2,36.2L44.2,36.2z M60.9,5.2C60.9,5.2,61,5.2,60.9,5.2
			C61,5.2,61,5.3,60.9,5.2L60.9,5.2z M61.6,6.1L61.6,6.1L61.6,6.1L61.6,6.1z M49.1,78.9C49.1,78.9,49.1,78.9,49.1,78.9
			C49.1,79,49.1,79,49.1,78.9C49.1,78.9,49.1,78.9,49.1,78.9L49.1,78.9L49.1,78.9z M20,77.5L20,77.5L20,77.5L20,77.5L20,77.5z
			 M21.1,80.1c0.1,0,0.1,0,0.1,0c0,0,0,0,0,0C21.2,80.1,21.1,80.1,21.1,80.1L21.1,80.1z M20,77.5L20,77.5L20,77.5L20,77.5L20,77.5
			L20,77.5C20.1,77.5,20.1,77.5,20,77.5C20.1,77.4,20,77.4,20,77.5L20,77.5L20,77.5z M21.1,80.1L21.1,80.1
			C21.1,80.1,21.1,80.1,21.1,80.1C21.1,80.1,21.1,80.1,21.1,80.1C21.1,80.1,21.1,80.1,21.1,80.1z M43.8,36.1
			C43.8,36.1,43.8,36.1,43.8,36.1L43.8,36.1C43.8,36.1,43.8,36.1,43.8,36.1z M21.2,80.1L21.2,80.1L21.2,80.1
			C21.2,80.1,21.2,80.1,21.2,80.1z M21.2,80.1L21.2,80.1C21.1,80.1,21.2,80.1,21.2,80.1L21.2,80.1z M21.1,80.1
			c0-0.1-0.1-0.1-0.1-0.2C20.5,79.1,20.7,79.5,21.1,80.1z M19.8,77.6L19.8,77.6L19.8,77.6C19.8,77.6,19.8,77.6,19.8,77.6z
			 M21.1,80.1C21.1,80.1,21.1,80.1,21.1,80.1C21.1,80.1,21.1,80.1,21.1,80.1L21.1,80.1z M21.1,80.1C21.1,80.1,21.1,80.1,21.1,80.1
			C21.1,80.1,21.1,80.1,21.1,80.1C21.1,80.1,21.1,80.1,21.1,80.1z M20.6,78.8C20.6,78.8,20.6,78.8,20.6,78.8L20.6,78.8L20.6,78.8z
			 M20,77.7C20,77.7,20,77.7,20,77.7C20,77.6,20,77.6,20,77.7L20,77.7z M50.5,68.4c0-0.4,0-0.7,0-1.1c0-0.4,0-0.8,0-1.1
			c0-0.2,0-0.3,0-0.4c0,0,0,0,0-0.1c0-0.2,0-0.2,0-0.2l-0.1,0.2c0,0,0,0,0,0.1c0.1,0.5,0.1,1,0.1,1.5C50.4,67.7,50.4,68.1,50.5,68.4
			z M40.9,134C40.9,134,40.9,134,40.9,134l0.1-0.2c0,0,0,0,0,0c0,0,0,0-0.1,0C40.9,133.9,40.9,134,40.9,134
			C40.9,134,40.9,134,40.9,134z M29.1,62.5l0.1-0.1c0,0,0,0,0,0c0,0,0,0,0,0L29.1,62.5C29.1,62.5,29.1,62.5,29.1,62.5
			C29.1,62.5,29.1,62.5,29.1,62.5z M20.6,78.8L20.6,78.8C20.6,78.8,20.6,78.8,20.6,78.8L20.6,78.8L20.6,78.8z M39.4,139.7
			C39.4,139.6,39.4,139.6,39.4,139.7C39.4,139.6,39.4,139.7,39.4,139.7C39.4,139.7,39.3,139.7,39.4,139.7l-0.1,0.1
			c0,0.1,0,0.2,0,0.2c-0.1,0.1-0.1,0.2-0.1,0.3c0,0.2-0.2,0.3-0.3,0.5c0,0.1-0.1,0.1-0.1,0.2c0,0.1-0.1,0.1-0.1,0.2c0,0-0.1,0-0.1,0
			c0,0-0.1,0-0.1,0.1c0,0,0,0.1,0,0.1c0,0.1-0.1,0.2-0.1,0.3c-0.1,0.1,0,0.2,0,0.2c0-0.1,0.1-0.3,0.1-0.4c0-0.1,0-0.1,0.1-0.2
			c0,0,0.1,0,0.1,0c0,0,0,0,0,0.1l0,0c0,0,0,0,0,0c0,0,0,0,0,0l0,0h0c0,0,0,0-0.1,0c0-0.1,0-0.1,0.1-0.2c0.1-0.1,0.1-0.1,0.1-0.2
			c0.1-0.2,0.3-0.3,0.3-0.5l0-0.2c0,0,0-0.1,0.1-0.1l0,0c0,0,0.1,0,0.1-0.1c0,0,0,0,0.1,0c0,0,0,0.1,0,0.1l0,0c0,0,0,0,0-0.1
			c0,0,0,0,0.1,0l0,0c0,0-0.1,0-0.1,0c0,0,0,0,0,0c0,0,0,0,0,0c-0.1,0-0.1,0-0.2,0l0.2-0.2c0,0,0,0.1,0,0.1c0,0,0-0.1,0-0.1l0.1-0.1
			c0,0-0.1,0-0.1,0c0,0,0,0,0,0c0,0,0,0,0,0C39.5,139.6,39.4,139.6,39.4,139.7z M20.9,80.1L20.9,80.1C20.9,80.1,21,80.1,20.9,80.1
			C21,80.1,20.9,80.1,20.9,80.1z M43.8,36.1C43.8,36.1,43.8,36.1,43.8,36.1C43.8,36.1,43.8,36.1,43.8,36.1L43.8,36.1
			C43.8,36.1,43.8,36.1,43.8,36.1C43.8,36.1,43.8,36.1,43.8,36.1z M20.5,76.9c0,0-0.1-0.1-0.1-0.1c0,0-0.1,0-0.1-0.1L20.5,76.9z
			 M21,80.1C21,80.1,21,80.1,21,80.1C21.1,80.1,21.1,80.1,21,80.1C21.1,80.1,21.1,80.1,21,80.1C21.1,80.1,21.1,80.1,21,80.1L21,80.1
			C21.1,80.1,21.1,80.1,21,80.1C21.1,80.1,21.1,80.1,21,80.1C21,80.1,21,80.1,21,80.1C21,80.1,21,80.1,21,80.1
			C21,80.1,21,80.1,21,80.1z M20.6,78.8L20.6,78.8C20.6,78.8,20.6,78.8,20.6,78.8C20.6,78.8,20.6,78.8,20.6,78.8L20.6,78.8
			C20.5,78.8,20.5,78.8,20.6,78.8C20.5,78.9,20.5,78.9,20.6,78.8C20.5,78.9,20.5,78.8,20.6,78.8C20.6,78.8,20.6,78.8,20.6,78.8z
			 M20.8,77.6l0,0.3l0,0L20.8,77.6C20.8,77.6,20.8,77.6,20.8,77.6z M20.8,77.6L20.8,77.6C20.8,77.8,20.8,77.8,20.8,77.6z
			 M49.4,139.9C49.4,139.9,49.4,139.9,49.4,139.9c0,0,0-0.1,0-0.1l0-0.1c0,0,0,0,0,0C49.4,139.7,49.4,139.8,49.4,139.9z M43.3,36.3
			L43.3,36.3l-0.1-0.2l0,0L43.3,36.3z M43,27.9c0,0.1,0.1,0.2,0.1,0.3l0,0.1c0,0,0,0,0,0l0,0.1c0,0.3,0,0.5,0.1,0.7l-0.1-0.8
			C43.1,28.2,43,28,43,27.9z M43.4,36.4L43.4,36.4l-0.1-0.1C43.3,36.3,43.3,36.4,43.4,36.4z M43,33.4l0.1,0.2
			C43,33.3,43,33.1,43,33.4z M59.4,4.2L59.4,4.2C59.4,4.2,59.4,4.3,59.4,4.2L59.4,4.2C59.4,4.3,59.4,4.3,59.4,4.2z M46.3,134.1
			C46.3,134.1,46.3,134.1,46.3,134.1L46.3,134.1C46.3,134.1,46.3,134.1,46.3,134.1C46.2,134.1,46.3,134.1,46.3,134.1z M59,4.5
			C59.1,4.4,59.1,4.4,59,4.5c0.1-0.1,0.2-0.2,0.3-0.2l0,0c0,0,0,0,0,0c0,0,0.1,0,0.1,0c0,0,0,0,0,0c0,0,0,0,0,0l0,0l0,0l0,0l0,0l0,0
			c0,0,0,0,0,0l0,0l0,0l0,0l0,0h0c0,0,0,0,0,0c0,0,0,0,0,0l0,0l-0.1,0c0,0-0.1,0-0.1,0C59.1,4.3,59.1,4.4,59,4.5
			C59.1,4.4,59,4.5,59,4.5C59,4.6,59,4.6,59,4.8c0-0.1,0-0.2,0-0.3C59,4.5,59,4.5,59,4.5z M33.5,32.3c0,0.1,0.1,0.2,0.1,0.3
			c0.1,0.3,0.1,0.3,0.2,0.2c0-0.1,0-0.1-0.1-0.2C33.6,32.5,33.6,32.4,33.5,32.3L33.4,32l-0.2-0.3l-0.2-0.3c0.1,0.1,0.1,0.2,0.2,0.4
			C33.4,32,33.4,32.2,33.5,32.3z M24.4,42.3L24.4,42.3c-0.1,0.1-0.1,0.2-0.1,0.2L24.4,42.3z M24.5,42.5
			C24.5,42.5,24.4,42.6,24.5,42.5c-0.2,0.3-0.3,0.7-0.4,1C24.3,42.8,24.5,42.6,24.5,42.5z M21,56.6c-0.1,0.3-0.1,0.6-0.2,0.9
			C20.9,57.2,21,56.9,21,56.6z M33,31.3c0-0.1,0-0.1-0.1-0.2c0,0,0-0.1,0-0.1c0,0,0,0.1,0,0.1C33,31.2,33,31.2,33,31.3z M33.1,31.4
			c0,0,0-0.1-0.1-0.2C33.1,31.3,33.1,31.4,33.1,31.4L33.1,31.4z M59.4,4.2L59.4,4.2L59.4,4.2C59.4,4.2,59.4,4.2,59.4,4.2
			C59.4,4.2,59.4,4.2,59.4,4.2L59.4,4.2C59.4,4.2,59.4,4.2,59.4,4.2C59.4,4.2,59.4,4.2,59.4,4.2C59.4,4.2,59.4,4.2,59.4,4.2
			L59.4,4.2L59.4,4.2z M59.4,4.2L59.4,4.2L59.4,4.2L59.4,4.2C59.4,4.2,59.4,4.2,59.4,4.2z M46.3,134.1L46.3,134.1L46.3,134.1
			C46.3,134.1,46.3,134.1,46.3,134.1C46.3,134,46.3,134,46.3,134.1C46.3,134.1,46.3,134.1,46.3,134.1L46.3,134.1z M59.4,4.3
			C59.4,4.2,59.4,4.2,59.4,4.3C59.4,4.2,59.4,4.3,59.4,4.3L59.4,4.3z M59.4,4.2C59.4,4.2,59.4,4.2,59.4,4.2
			C59.4,4.2,59.4,4.2,59.4,4.2C59.4,4.2,59.4,4.2,59.4,4.2L59.4,4.2C59.4,4.2,59.4,4.2,59.4,4.2z M59.4,4.2
			C59.4,4.2,59.4,4.2,59.4,4.2L59.4,4.2C59.4,4.2,59.4,4.2,59.4,4.2z M19.8,77.4L19.8,77.4L19.8,77.4C19.8,77.4,19.8,77.4,19.8,77.4
			L19.8,77.4L19.8,77.4L19.8,77.4l0,0.1L19.8,77.4l0.1,0.1C19.9,77.4,19.9,77.4,19.8,77.4L19.8,77.4L19.8,77.4
			C19.9,77.4,19.9,77.4,19.8,77.4C19.9,77.4,19.9,77.4,19.8,77.4L19.8,77.4C19.8,77.3,19.8,77.3,19.8,77.4z M44.1,36.2L44.1,36.2
			L44.1,36.2L44.1,36.2L44.1,36.2z M59.4,4.2L59.4,4.2C59.4,4.2,59.4,4.2,59.4,4.2L59.4,4.2z M59.4,4.2L59.4,4.2L59.4,4.2L59.4,4.2z
			 M46.1,134.1C46.1,134.1,46.1,134.1,46.1,134.1c0.1,0,0.1,0,0.1,0C46.1,134.1,46.1,134.1,46.1,134.1
			C46.1,134.1,46.1,134.1,46.1,134.1z M59.4,4.2L59.4,4.2L59.4,4.2C59.4,4.2,59.4,4.2,59.4,4.2z M46,134.2c0,0,0,0.1,0,0.1
			c0,0,0,0-0.1,0l-0.1,0l0,0c0,0-0.1,0.1-0.3,0c-0.2-0.1-0.1-0.2-0.1-0.2l0-0.1c0,0,0-0.1,0-0.1c0-0.2-0.1-0.5-0.1-0.7
			c0-0.1,0-0.1-0.1-0.2c-0.1-0.1-0.1-0.2-0.1-0.2c0-0.1,0-0.1,0,0.1c0,0,0,0.1,0.1,0.2c0,0,0,0,0,0.2c0,0.2,0.1,0.4,0.1,0.6
			c0,0,0,0,0,0.1c0,0,0,0.1,0,0.1c0,0,0,0.1,0.1,0.1c0,0.1,0.2,0.2,0.3,0.2c0.2,0,0.2-0.1,0.2,0l0,0c0,0,0,0,0.1,0c0,0,0,0,0,0
			c0,0.2,0,0.4,0,0.3c0,0,0-0.1,0.1-0.3c0,0,0.1,0,0.1,0l0.1,0c0,0,0,0,0,0l0,0c0.1,0,0,0,0,0l0,0l0,0l0,0l0,0c0,0,0-0.2,0-0.3
			c0,0.1,0,0.4,0,0.2l0,0l0,0l0,0l0,0c-0.1,0,0,0,0,0l0,0c0,0,0,0,0,0c0,0-0.1,0-0.1,0c0,0,0,0,0,0C46,134.2,46.1,134.2,46,134.2
			C46,134.1,46,134.1,46,134.2L46,134.2z M18,85.5C17.9,85.5,17.9,85.5,18,85.5L18,85.5C17.9,85.5,17.9,85.5,18,85.5z M49.6,78.7
			L49.6,78.7C49.6,78.7,49.6,78.7,49.6,78.7L49.6,78.7z M49.7,78.7L49.7,78.7L49.7,78.7L49.7,78.7z M21.1,82.9L21.1,82.9
			C21.2,82.9,21.2,82.9,21.1,82.9L21.1,82.9L21.1,82.9L21.1,82.9z M21.1,82.9C21.1,82.9,21.1,82.9,21.1,82.9L21.1,82.9L21.1,82.9z
			 M21.1,82.9L21.1,82.9C21.1,82.9,21.1,82.9,21.1,82.9C21.1,82.9,21.1,82.9,21.1,82.9z M44,36.2C44,36.2,44,36.2,44,36.2
			C44,36.2,44,36.2,44,36.2L44,36.2C44,36.2,44,36.2,44,36.2z M26.8,53l0.1-0.2l0-0.3l-0.1-0.2L26.8,53z M43.9,36.2L43.9,36.2
			C43.9,36.2,43.9,36.2,43.9,36.2C43.9,36.2,43.9,36.2,43.9,36.2C43.9,36.2,43.9,36.2,43.9,36.2z M43.9,36.2
			C43.9,36.2,43.9,36.2,43.9,36.2L43.9,36.2C43.9,36.2,43.9,36.2,43.9,36.2z M49.7,78.7C49.7,78.7,49.7,78.7,49.7,78.7L49.7,78.7
			L49.7,78.7z M17.9,85.4C17.9,85.4,17.9,85.4,17.9,85.4L17.9,85.4C17.9,85.4,17.9,85.4,17.9,85.4z M43.2,36.1
			C43.2,36.1,43.2,36.1,43.2,36.1L43.2,36.1L43.2,36.1L43.2,36.1z M32.9,29.9C32.9,29.9,32.9,29.9,32.9,29.9
			C32.9,29.8,32.9,29.8,32.9,29.9z M25.7,94.6C25.7,94.6,25.7,94.6,25.7,94.6C25.7,94.6,25.7,94.6,25.7,94.6z M23.4,67.1L23.4,67.1
			c0-0.1,0.1-0.1,0.1-0.2l0.1-0.2l0.1-0.5C23.6,66.5,23.5,66.8,23.4,67.1C23.6,67.2,23.3,67,23.4,67.1z M28.6,99.3
			c0-0.1,0-0.2-0.1-0.4C28.6,99,28.6,99.3,28.6,99.3C28.6,99.4,28.6,99.4,28.6,99.3z M26.8,51.9l-0.1,0.9L26.8,51.9L26.8,51.9z
			 M19.2,85.1C19.2,85.1,19.2,85.1,19.2,85.1C19.2,85.1,19.2,85.1,19.2,85.1C19.2,85.1,19.2,85.1,19.2,85.1z M40.8,135.6
			c0,0.1,0,0.2,0,0.3C40.8,135.8,40.8,135.7,40.8,135.6c0.1-0.3,0.1-0.7,0.2-1.1c-0.1,0.2-0.1,0.4-0.1,0.7
			C40.9,135.3,40.9,135.5,40.8,135.6z M23.3,67.1C23.3,67.1,23.3,67.1,23.3,67.1C23.3,67.1,23.3,67.1,23.3,67.1L23.3,67.1L23.3,67.1
			z M40.8,136C40.8,136,40.8,135.9,40.8,136C40.8,136,40.8,136,40.8,136C40.8,136,40.8,136,40.8,136z M42.4,26.3l0,0.4
			c0.1,0.1,0.1,0.3,0.1,0.4C42.5,26.8,42.5,26.5,42.4,26.3z M43.8,36.1C43.8,36.1,43.8,36.1,43.8,36.1L43.8,36.1L43.8,36.1z
			 M43.8,36.1L43.8,36.1L43.8,36.1L43.8,36.1z M66.4,28.8c0,0,0-0.1,0-0.2c-0.1-0.7-0.1-1.7-0.2-2.5c-0.1-0.9-0.3-1.7-0.4-2.5
			c-0.1-0.8-0.2-1.6-0.4-2.3c0.1,1.5-0.7-3.4-1-3.6c-0.1-0.4-0.3-1.4,0.1-0.3c-0.1-0.4-0.2-0.8-0.3-1.1c0-0.2-0.1-0.3-0.1-0.5
			c0-0.1,0-0.1,0-0.2c0.1-0.1,0.1-0.1,0.1-0.2c0-0.1,0.1-0.1,0.1-0.2l0.1-0.2l0-0.2C64.1,14.4,64,14,64,13.6l-0.1-0.4l-0.3-0.1
			l0-0.1l-0.1-0.4c0-0.1-0.1-0.3,0-0.4c0-0.1,0.1-0.2,0.1-0.4c0.1-0.3,0.2-0.7,0.2-1c0-0.2,0-0.3,0.1-0.5c0-0.2,0.1-0.3,0.1-0.6
			c0-0.1,0-0.1,0-0.1c0,0,0,0.2,0,0.4c0,0.2,0,0.4,0,0.2c0-0.1,0-0.2,0.1-0.4c0-0.2,0-0.3,0-0.5c0-0.3,0-0.6,0-0.9c0,0,0,0,0-0.1
			c0,0,0-0.1,0-0.1c0,0,0,0,0,0c0,0,0,0,0,0c0,0.2,0,0.2,0,0.4c0,0.3,0,0.6,0,1c0-0.4,0-0.8,0-1.1l0-0.1c0,0,0,0,0-0.2l0-0.1
			c0-0.1,0-0.1,0-0.2C64,8.1,64,8,64,7.9c0,0.2,0-0.1,0-0.2c0-0.1,0-0.2,0-0.3c0-0.1-0.1-0.3-0.2-0.3c0,0-0.1-0.2-0.1-0.3
			c-0.1-0.1-0.1-0.3-0.2-0.5c-0.1-0.1-0.2-0.3-0.3-0.3c-0.2-0.1-0.4-0.2-0.5-0.3c-0.2-0.1-0.3,0-0.4,0c-0.1,0-0.2,0.1-0.3,0.1
			l-0.1,0c0-0.2-0.1-0.3-0.1-0.5c-0.1-0.2-0.3-0.3-0.4-0.5l0,0l-0.1,0c-0.1,0-0.2-0.1-0.3-0.1c0,0-0.1,0-0.1,0c-0.1,0-0.1,0-0.2,0.1
			l-0.1,0.1l0-0.1c0-0.1-0.1-0.2-0.1-0.4l-0.1-0.2c-0.1-0.2-0.1-0.3-0.2-0.4c-0.2-0.2-0.5-0.4-0.8-0.3c-0.2,0-0.4,0.1-0.6,0.2
			c-0.1,0.1-0.2,0.2-0.2,0.2c0,0,0,0,0-0.1c0,0,0.1-0.1,0.1-0.1c0.1-0.1,0.3-0.2,0.6-0.3c0,0,0.2,0,0.3,0c0,0-0.1,0-0.1,0
			c-0.2,0-0.3,0.1-0.5,0.2c-0.1,0.1-0.2,0.2-0.3,0.3c0-0.1,0-0.1-0.1-0.1c0-0.1,0-0.2,0-0.2c0-0.3-0.1-0.4-0.1-0.5
			C58,2.7,58.1,2.5,58,2.3c-0.1-0.5-0.2-1-0.2-1.4c0-0.2-0.1-0.3-0.1-0.4c0-0.1,0-0.1-0.1-0.2c0,0-0.1-0.1-0.2-0.2
			c-0.1,0-0.1-0.1-0.1-0.1C57.2,0,57.1,0,56.9,0c0,0-0.2,0-0.2,0c0,0-0.1,0-0.1,0c-0.3,0.1-0.3,0.3-0.4,0.4c0,0.1-0.1,0.1-0.1,0.2
			C56,0.8,55.9,1.4,56,1.9c0,0.4,0.2,0.9,0.2,1.1c0.1,0.5,0.2,1,0.2,1.4c0.1,0.4,0.2,0.7,0.3,1c0.1,0.2-0.1,0.4-0.2,0.6
			c-0.2,0.2-0.6,0.7-0.3,1.2c0.1,0.1,0.1,0.3,0.1,0.6c0,0.3,0.1,0.6,0.2,1.1c0-0.3,0-0.6-0.1-0.8c0.1,0.3,0.2,0.6,0.2,0.9
			c0.1,0.4,0.4,0.6,0.6,1c0.2,0.3,0.4,0.7,0.7,1.1c0.1,0.2,0.3,0.4,0.5,0.6c0.2,0.2,0.3,0.4,0.5,0.6l0,0c0,0,0,0.1,0.1,0.1
			c0.1,0.1,0,0.3,0.1,0.5c0,0.1,0,0.2,0,0.4c0,0.1,0.1,0.1,0.1,0.2c0,0.2,0,0.4,0.1,0.6c0,0.1,0,0.2,0,0.3l0,0l-0.1,0.1
			c-0.1,0.2,0,0.3,0,0.3c0,0.1,0,0.2,0.1,0.3c0,0.2,0,0.2,0.1,0.4c0.1,0.3,0.1,0.5,0.1,0.6l0,0.1l0.1,0.1c0,0,0,0,0,0
			c0.1,0.5,0.2,1.3,0.3,3.4l0.1-0.3c0.1,0.1,0.1,0.5,0.1,1c0,0.5-0.1,1.2-0.1,2c0,0.8-0.1,1.6-0.1,2.5c0,0.8,0.1,1.7,0.2,2.5l0-1.1
			c0.1,0.5,0.1,1.2,0.1,1.9c0,0.4,0,0.8-0.1,0.9c0,0.1-0.1,0.1-0.1,0.1l-0.2,0.2c-0.1,0.2-0.2,0.2-0.3,0.3c-0.2,0-0.4,0.1-0.5,0.1
			c-0.2,0-0.5,0.1-0.7,0.2c-0.4,0.2-0.7,0.3-1,0.5c-0.3,0.2,0.5-0.3,1-0.6c-1.1,0.5-1.6,0.8-1.9,1c-0.3,0.2-0.3,0.2-0.3,0.2
			c0,0,0.1,0-0.1,0.2c-0.1,0.1-0.2,0.2-0.4,0.3c-0.1,0.1-0.4,0.3-0.7,0.5c-0.6,0.2,0.6-0.5-1.3,0.5c-0.1,0.2-2,0.3-3.8,0.7
			c-1.8,0.3-3.7,0.9-5.2,1.6c0.2-0.1,0.4-0.2,0.5-0.2c0.1,0-0.1,0.1-0.8,0.5c-0.1,0.1-0.2,0.2-0.3,0.2c0-0.1,0.1-0.2,0.1-0.3
			c0.1-0.2,0.1-0.4,0.2-0.6c0.2-0.4,0.1-0.8,0.1-1.2c0.1-0.3,0.1-0.7,0.3-1c0.1-0.3,0.3-0.9,0.2-1.2c0-0.1,0-0.1,0.1-0.3
			c0.1-0.2,0.2-0.3,0.4-0.4c0.1-0.1,0.2-0.2,0.3-0.5c0.1-0.3,0.1-0.4,0.1-0.6l0-0.2L45.4,29c-0.3-0.3-0.5-0.3-0.6-0.3
			c-0.2,0-0.1,0-0.2,0c0,0,0,0-0.1,0c0,0,0,0,0,0c-0.1,0-0.1,0.1-0.2,0.1c0,0.1-0.1,0.2-0.1,0.2c-0.1-0.1-0.1-0.3-0.1-0.5l0-0.2
			l0-0.1c0-0.1,0-0.2,0-0.2c-0.1-0.3-0.1-0.5-0.2-0.8l-0.1-0.4c0-0.1-0.1-0.3-0.1-0.4c-0.1-0.2-0.2-0.5-0.3-0.7
			c-0.4-0.9-0.9-1.5-1.3-1.8c-0.2-0.4-1-1.1-2.2-1.4c-0.6-0.2-1.3-0.2-2-0.1c-0.7,0.1-1.4,0.2-2,0.6c-0.6,0.4-1.1,0.9-1.5,1.3
			c-0.2,0.2-0.4,0.5-0.5,0.7c-0.1,0.1-0.2,0.2-0.2,0.4c0,0.1-0.1,0.3-0.1,0.4c-0.2,0.9-0.3,1.5-0.4,1.5L33,28.1l0,0.3
			c0,0.1,0,0.3,0,0.4c0,0.3,0,0.5,0,0.7c0,0.1,0,0.3,0,0.3c0,0,0,0,0,0l0,0l0,0c0,0,0,0,0,0c0,0,0,0,0,0c0,0,0,0,0,0c0,0,0,0,0,0
			c0,0,0,0,0,0c0,0,0,0,0,0l-0.1,0c0,0,0,0,0,0l-0.1-0.2l-0.2-0.1c-0.2-0.1-0.3-0.1-0.5-0.1c-0.1,0-0.3,0-0.5,0.2
			c-0.2,0.2-0.2,0.3-0.2,0.6l0,0l0,0l0.2,0.6c0,0,0,0.1,0.1,0.1l0.1,0.1l0,0c0,0,0,0,0,0l-0.1-0.1l0,0c0,0,0,0,0,0
			c0,0,0,0.1,0.1,0.1c0.1,0.1,0.1,0.1,0.1,0.2c0.1,0.3,0.2,0.6,0.3,0.8c0.1,0.2,0.2,0.5,0.3,0.7c0,0,0,0,0,0.1
			c0.1,0.2,0.2,0.5,0.4,0.8c0.1,0.1,0.1,0.1,0.2,0.2C33,34,33,34,33,34c0,0,0.1,0,0.1,0l0.1,0l0,0.1l0,0.1l0,0.1l0,0.1l0,0.1
			c0,0.2,0,0.3,0,0.5c0,0.3,0,0.5,0,0.8c0,0.1,0,0.2,0.1,0.3l0,0c-0.1,0.1-0.2,0.1-0.2,0.1c0,0,0,0,0,0c0,0,0.1-0.1,0.1-0.1
			l-0.1,0.1c-0.1,0.1-0.2,0.2-0.3,0.2c-0.1,0-0.2,0-0.3,0.1c-0.1,0-0.2,0.1-0.3,0.1c-0.1,0-0.2,0.1-0.2,0.1c-0.1,0-0.2,0.1-0.3,0.1
			l-0.2,0.1c0,0-0.1,0-0.1,0c-0.1,0-0.1,0-0.2,0c-0.1,0-0.2,0-0.3,0l-0.5,0.1l0.2,0.5C30,37.6,29.6,37.7,29,38
			c-0.2,0.1-0.6,0.2-0.9,0.3c-0.2,0.1-0.4,0.2-0.5,0.3c-0.2,0.1-0.3,0.2-0.5,0.3c-0.7,0.4-1.5,0.7-2.4,1.6c-0.1,0.1-0.3,0.2-0.4,0.3
			c-0.2,0.2-0.6,0.8-1,1.6c-0.4,0.8-0.7,1.9-1,3c-0.1,0.6-0.3,1.2-0.4,1.8c-0.1,0.3-0.1,0.6-0.2,1c0,0.3-0.1,0.6-0.1,1
			c-0.2,1.3-0.7,2.6-0.9,3.9c0-0.1,0-0.2,0.1-0.6c-0.3,1.4-0.6,3-1,4.5c-0.1,0.4-0.2,0.8-0.3,1.1c-0.1,0.3-0.1,0.5-0.2,0.7
			c0,0.1-0.1,0.3-0.2,0.5c-0.1,0.2-0.2,0.3-0.3,0.4l-0.1,0.2l-0.1,0.1c0,0-0.1,0.1-0.1,0.2c-0.2,0.5-0.3,0.8-0.5,1.2
			c-0.2,0.7-0.3,1.4-0.5,2.1c-0.1,0.7-0.2,1.3-0.3,1.9c-0.1,1.1-0.2,2-0.1,2.6c-0.1,1.3-0.2,2.5-0.2,3.8c0.4-4.9,0.1,0.7,0.4-1.3
			c-0.1,1.9-0.6,5-0.4,2.6l0.1-0.4c-0.1-0.3-0.1,0.5-0.3,1.6c-0.1,0.5-0.2,1.2-0.4,1.7c0,0.1-0.1,0.3-0.1,0.5
			c-0.1,0.2,0,0.4-0.1,0.5c0,0.2,0,0.4,0,0.5c-0.1,0-0.1,0-0.2,0l-0.1,0l-0.1,0.2c0,0.1-0.1,0.2-0.1,0.2l-0.1,0.2l0.2,0.2
			c0.1,0.2,0.1,0.2,0.1,0.2c0.2,0,0.1,0.4,0.1,0.5c0,0.3-0.1,0.7-0.1,1l-0.1,1l0,0.5l0,0.2l0,0.1c0,0,0,0,0,0l-0.1,0.1l-0.1,0.4
			c0,0.2,0.1,0.5,0.2,0.7c0.1,0.2,0.1,0.3,0.1,0.4c0,0.2,0.1,0.4,0.1,0.6l0,0l-0.1,0.2l-0.1,0.2l-0.2,0.6l0.5-0.1l0.1,0.2
			c0.1,0.1,0.1,0.2,0.1,0.2l0.2,0.2c0.2,0.2,0.3,0.2,0.4,0.4c0.1,0.2,0.3,0.4,0.6,0.6l0.1,0l0,0l0,0l0,0l0,0l0,0c0-0.1,0,0.1,0-0.1
			l0,0l0,0.1l0,0c0,0,0,0,0,0l0.1,0.1c0.1,0,0.2,0.1,0.2,0.2l0.2,0.2l0.3,0.2l0.6,0.2c0.1,0,0.1,0,0.2,0.1l0.2,0.1l0.1,0.1l0,0l0,0
			l0,0l0,0l0,0l0,0c0,0.1,0,0,0,0c0,0.1,0,0.1,0.1,0.2l0.1,0.1c0.1,0,0.1,0.1,0.1,0.1c0,0,0,0,0.1,0c0,0,0.1,0.1,0.1,0.1
			c0,0,0,0,0.1,0.2c0.1,0.1,0.1,0.1,0.3,0.2c0.2,0.1,0.3,0.1,0.4,0c0.2-0.1,0.3-0.1,0.4-0.2l0.1-0.1l0.1-0.1l0.1-0.1
			c0-0.1,0.2,0,0.2-0.1c0.1,0,0.1-0.1,0.2-0.1c0.1-0.1,0.2-0.3,0.1-0.5c0-0.2-0.1-0.4-0.2-0.5c-0.1-0.2-0.2-0.3-0.4-0.2
			c-0.2-0.2-0.5-0.5-0.5-0.8c0-0.1-0.1-0.2-0.1-0.3c0.2,0.2,0.4,0.3,0.7,0.4c0.1,0,0.2,0,0.3,0c0.2,0,0.5-0.2,0.5-0.3
			c0.1-0.2,0.1-0.4,0.2-0.5l0-0.6l0-0.1c0,0,0,0,0-0.1l0-0.3l0.1-0.6c0.1-0.3-0.1-0.6-0.1-0.8l-0.1-0.3c0-0.1,0-0.1,0-0.1
			c0-0.1,0-0.2,0-0.3c0,0.1,0,0.3-0.1,0.3c0,0.1,0,0.3,0,0.6c-0.1-0.2-0.2-0.5-0.2-0.6l0-0.6l0-0.3c0-0.2,0-0.3,0-0.4
			c-0.2-0.6-0.3-0.6-0.5-1.2c-0.2-0.4-0.3-0.6-0.2-0.6c0,0,0.1,0.2,0.3,0.4c0,0.1,0.1,0.1,0.1,0.2l0,0.1c0,0.1,0,0.1,0,0.1
			c0,0,0,0.1,0.1,0.1c0,0.1,0.1,0.2,0.1,0.3c0,0,0,0.1,0.1,0.1c0,0.1,0.1,0.2,0.1,0.3c-0.1-0.3-0.2-0.5-0.3-0.7l-0.1-0.1
			c0-0.1-0.1-0.2-0.1-0.3c-0.1-0.1-0.1-0.2-0.2-0.4l-0.2-0.3l-0.1-0.1c0.1,0,0.1,0,0,0l0,0c0,0,0,0,0,0l0,0l0-0.1l0-0.1
			c-0.1-0.2-0.2-0.3-0.3-0.4L20.8,78l0-0.1l0.1-0.1l0-0.2l0-0.3l0-0.4l-0.3-0.1l-0.1,0c0,0,0-0.1,0-0.1c0-0.2,0-0.3-0.1-0.5
			c0,0.1,0,0.2,0,0.3c0-0.2-0.1-0.3-0.1-0.4c0-0.1,0-0.2,0-0.3c0-0.2,0.1-0.5,0.1-0.8c0.1-0.5,0.3-1.2,0.8-2.5
			c0.6-1.6,0.4-0.8,0.7-1.4c0,0,0,0,0.1-0.2c0.1-0.1,0.1-0.4,0.3-0.8l0.7-1.9l0.3-0.9l0.1-0.2l0,0c0,0,0,0,0,0l0,0c0,0,0,0,0,0
			L23,67.8c0.1-0.2,0.1-0.4,0.2-0.6l0.1-0.1l0,0L23.2,67L23,66.9l0,0c0.1,0.1,0.2,0.1,0.2,0.2l0,0c0,0,0.1-0.1,0.1-0.2
			c0-0.1,0.1-0.2,0.1-0.3c0.1-0.4,0.1-0.8,0.2-1c0.1-0.5,0.1-0.5-0.2,0.4c0.1-0.4,0.3-1,0.4-1.7c0.1-0.7,0.4-1.7,0.3-2.6
			c0-0.1,0.1-0.3,0.1-0.5c0-0.2,0.1-0.4,0.1-0.6c0-0.2,0.1-0.3,0.1-0.4l0.3-0.5c0.3-0.7,0.7-1.4,1-2.1c0.3-0.7,0.7-1.4,1-2.1
			c0.1-0.2,0.2-0.4,0.2-0.6c0,0.2,0.1,0.4,0.1,0.6c0,0.2,0.1,0.3,0.1,0.5c0,0.1-0.1,0.2-0.1,0.2c0,0-0.1,0.1-0.1,0.1
			c0,0-0.1-0.1-0.1,0l-0.1,0l-0.4,0.2l0.2,0.4l0.3,0.4l0.6,0.5l0.1,0.2l0.1,0.3c0.2,0.2,0.2,0.2,0.2,0.4L28,59c0,0.2,0,0.4,0.1,0.6
			l0.2,0.5c0,0.1,0,0.1,0,0.2l0,0.3c0,0.2,0,0.4,0,0.6c0,0.2,0,0.4,0,0.6l0,0.3c0,0.1,0,0.1,0,0.1l-0.1,0.2c0,0.2,0,0.3-0.1,0.5
			c0,0.1-0.1,0.3-0.1,0.5c0.1-0.4,0.2-0.6,0.2-0.5c0,0,0,0.2-0.1,0.5c-0.1,0.3-0.2,0.7-0.3,1.4c-0.1-0.4-0.3,0.4-0.5,1.7
			c-0.1,0.6-0.2,1.4-0.3,2.1c0,0.3-0.1,0.6-0.2,0.9c-0.1,0.3-0.2,0.6-0.4,0.9c-0.1,0.3-0.2,0.5-0.3,0.8c0-0.1,0.1-0.1,0,0.1
			c0,0.2,0,0.6-0.1,1.1c0,0.2,0,0.5,0,0.7c0,0.1,0,0.3,0,0.4c0,0.2,0,0.3,0,0.5c0,0.3,0.1,0.6,0.2,0.9c0.1,0.2,0.2,0.6,0.2,0.7
			c0,0,0,0.1,0,0.1c0,0,0,0.1,0,0.1c0,0.2-0.1,0.4-0.1,0.5c0,0.1,0,0.2,0,0.2c0,0,0,0,0.1-0.1c0-0.1,0-0.2,0.1-0.5
			c-0.1,0.5-0.1,0.7-0.2,0.9c0,0.1,0,0.1,0,0.1c0,0.3-0.1-0.1-0.1,0.1c0,0.1,0,0.1,0,0.2c0,0,0,0.2,0,0.3c0,0.1,0,0.2,0.1,0.3
			l0.1,0.2l0,0.1l-0.1,0.4l0,0.1c0,0,0,0,0,0l0,0c0,0,0,0,0,0l0,0c-0.1,0.3-0.1,0.3-0.1,0.5c0,0.1,0,0.3,0,0.4l0,0.3
			c0,0,0,0.1,0,0.1l-0.1,0.3c-0.1,0.8-0.3,1.5-0.4,2.4c0,0.3-0.2,0.8-0.4,1.3l0,0l0,0c-0.1,0.2-0.1,0.4-0.2,0.5l0,0.1l0,0.1
			l-0.1,0.2c-0.1,0.3-0.2,0.6-0.4,0.9c-0.1,0.3-0.3,0.6-0.4,1c0,0.3-0.4,0.9,0,1.3c0.1,0.2,0.2,0.3,0.2,0.4c0,0.1,0.1,0.1,0,0.3
			c0,0.4,0,0.7,0,1.1c0,0.4,0.3,0.8,0.3,1c0,0.1,0,0.2,0,0.4c0,0.1,0,0.3,0,0.5c0,0.1-0.1,0.2-0.1,0.3c-0.1,0.2,0,0.3-0.1,0.5
			c0,0.3,0,0.5-0.1,0.7c-0.1,0.5-0.3,1-0.3,1.7c0,0.1,0.2-0.9,0.1,0.4l-0.1,0.6c0,0.2-0.1,0.6,0.3,0.6l-0.1,0l-0.1,0c0,0,0,0,0,0
			l0,0.1l0,0.2c0,0.1,0,0.3,0,0.4c0,0.1,0.1,0.2,0.2,0.3c0.1,0.1,0.2,0.1,0.3,0.2c0.2,0.1,0.3,0.2,0.3,0.2l0.4,0.5
			c0.2,0.3,0.4,0.4,0.5,0.4c0.1,0.1,0.3,0.2,0.4,0.2c0.2,0.1,0.4,0.2,0.7,0.4c0.1,0.1,0.1,0.6,0.1,1.3c0-0.4,0-0.8,0.1,0
			c0,0.4,0.1,0.7,0.1,1.1c0,0.4,0,0.8,0,1.2l0-0.1c0,0.8-0.4,1.6-0.4,2.6c0,0.5,0,0.9,0,1.3c0,0.4-0.1,0.9-0.1,1.4
			c-0.3,1.8-0.9,4-0.8,6.1c0,1,0,2.1,0.1,3.1c0.1,1.1,0.4,2.1,0.6,3.1c0.3,1,0.6,2,0.7,3l0.5,3.1c0.3,1.9,0.6,3.7,0.8,5.5l-0.2,0
			l-0.6,0l0.2,0.6l0.3,0.8c0,0.1,0.1,0.2,0.1,0.3c0,0,0,0,0,0c0,0-0.1,0.1-0.1,0.1l-0.2,0.5l-0.1,0.4l-0.1,0.4c0,0,0,0.2,0,0.2l0,0
			c0,0,0,0.1,0,0.1c-0.1,0.2-0.3,0.5-0.4,0.8l-0.1,0.2c0,0,0,0.1-0.1,0.1l-0.2,0.2l-0.1,0.1c0,0,0,0,0.1,0c0,0,0,0,0,0
			c0.3-0.3,0.3-0.3,0.3-0.3c0,0,0,0,0,0.1c-0.1,0.1-0.1,0.1-0.2,0.2c0,0-0.1,0-0.1,0.1c0,0,0,0,0,0l-0.1,0.1
			c-0.2,0.1-0.3,0.1-0.6,0.3c0.5-0.3,0.5-0.2,0.4-0.1c-0.1,0.1-0.3,0.2-0.1,0.2c-0.2,0.1-0.4,0.3-0.5,0.4c-0.3,0.4-0.2,1-0.3,1.1
			c0,0.1-0.1,0.1-0.2,0.2c-0.1,0.1-0.2,0.3-0.3,0.4c-0.1,0.1-0.1,0.3-0.1,0.5c0,0.2,0.1,0.4,0.1,0.4c0,0.2,0.1,0.3,0.1,0.5
			c0.1,0.2,0.1,0.3,0.3,0.4l0.7,0.5c0.1,0.1,0.4,0.1,0.5,0.1l0.4,0.1c0.1,0,0.2,0,0.3,0l0.1,0c0,0,0,0,0,0l0.1,0.2
			c0.1,0.1,0.2,0.2,0.3,0.2l0.1,0.1l0.1,0.1l0,0l0,0l0,0l0,0l0,0l0,0l0,0c0,0,0,0,0,0l0,0l0.1,0.1l0.1,0.1c0.1,0.1,0.2,0.2,0.3,0.3
			c0.2,0.2,0.5,0.4,0.8,0.5c0.3,0.1,0.7,0.2,0.9,0.2c1.2,0,2-0.1,2.3-0.2c-0.6,0.1-1.1,0.1-1.7,0.2c1.1-0.2,0.3-0.2-0.7-0.3
			c-0.5-0.1-1-0.4-1.3-0.7c-0.3-0.3-0.4-0.6-0.3-0.5c-0.2-0.2-0.4-0.4-0.6-0.5c0-0.2-0.2-0.4-0.3-0.4c-0.2-0.1-0.3-0.1-0.5-0.1
			c-0.3-0.1-0.6,0-0.7-0.1c-0.2-0.1-0.3-0.2-0.5-0.4c-0.1-0.1-0.2-0.3-0.2-0.4c0-0.2,0-0.3,0-0.3c0-0.1,0-0.2,0.1-0.3
			c0-0.1,0.1-0.1,0.1-0.2c0.1-0.1,0.3-0.2,0.3-0.4c0.1-0.2,0.1-0.5,0.1-0.6c0-0.2,0-0.3,0.1-0.3c0.1-0.1,0.1-0.2,0.4-0.2l0.3-0.1
			c0.1,0,0.2-0.1,0.2-0.1l0.2-0.1l0.4-0.4c0.1-0.1,0.1-0.2,0.2-0.3l0.1-0.2c0.1-0.3,0.2-0.6,0.4-0.9c0.1-0.2,0-0.4,0-0.5l0-0.4
			c0.1-0.9,0,0.7,0.1,0.3c0-0.3,0-0.6,0.1-0.8c0,0,0,0,0-0.1c0,0,0,0,0.1-0.2c0-0.1,0.1-0.1,0.1-0.2c0-0.1,0-0.2,0-0.3
			c-0.1-0.2-0.1-0.3-0.2-0.4c0-0.1-0.1-0.2-0.1-0.3c0,0,0.1,0,0.1,0l0.5,0.1l-0.1-0.5c0-0.4-0.1-0.8-0.2-1.2l0.1,0.3
			c-0.5-3.3-0.9-5.6-1.3-8c-0.1-1.2-0.5-2.5-0.9-3.8c-0.2-0.7-0.4-1.4-0.4-2.1c-0.1-0.8-0.1-1.6-0.1-2.5l-0.1,0.5
			c0-1.6,0.1-1.9,0.2-2.6c0-0.9-0.1,0.2-0.2,1.3c0,1.1,0,2.3-0.1,1.4c0.1-0.6,0.1-1.7,0.2-3.1c0.1-0.7,0.2-1.4,0.4-2.1
			c0.1-0.4,0.1-0.8,0.2-1.1c0.1-0.4,0.2-0.7,0.2-1.2c0-0.3,0-0.5,0-0.8c0-0.3,0.1-0.6,0.1-0.8c0-0.3,0-0.5,0-0.8
			c0-0.2,0-0.4,0.1-0.6c0.1-0.8,0.4-1.5,0.4-1.9c0-0.1,0-0.3,0-0.3l0,0l0-0.1c0-0.8-0.1-0.6-0.1-0.5c0,0.1,0,0.1,0,0
			c0-0.1,0-0.3-0.1-0.9l0-0.7c-0.1-0.2-0.1-0.4-0.2-0.6c0-0.2,0-0.4,0-0.6c0-0.2-0.1-0.5-0.1-0.7c-0.6-0.4-0.8-0.6-1-0.7
			c-0.2-0.2-0.3-0.2-0.3-0.3c0.1,0.1,0.3,0.2,0.5,0.4c0.3,0.2,0.6,0.4,0.8,0.5c0,0.1,0,0.1,0,0.2c0-0.1,0-0.1,0-0.2
			c-0.6-0.4-0.9-0.6-1.2-0.9c-0.2-0.1-0.4-0.3-0.4-0.3l-0.6-0.6c-0.2-0.2-0.5-0.3-0.5-0.3c-0.1,0-0.1,0-0.1-0.1l0-0.1
			c0-0.1,0,0,0-0.3c0,0,0-0.1,0-0.1c0,0,0,0,0,0l0,0l0-0.1c0,0,0-0.1,0-0.1c0-0.1,0-0.3,0-0.4c0-0.3,0-0.6,0.1-0.8c0,0,0,0,0,0
			c0,0,0,0,0,0l0,0l0,0l0,0l0,0l0,0.1l-0.1,0.6l-0.1,0.5c0,0,0,0,0,0c0,0,0,0,0,0l0-0.5l0.1-0.6c0-0.1,0-0.1,0-0.1c0,0,0,0,0.1,0
			c0,0,0-0.1,0-0.1l0,0.1l0,0l0,0c0,0,0,0-0.1,0c0,0,0,0,0-0.1l0.1-0.3c0.1-0.4,0.2-0.8,0.3-1.2c0-0.3,0-0.4,0.1-0.7
			c0-0.2,0-0.2,0.1-0.3l0.1-0.3l-0.1-0.2c0-0.1,0-0.1,0-0.2c0-0.2,0-0.4,0-0.6c-0.1-0.5-0.3-0.7-0.3-1c-0.1-0.3,0-0.6,0-0.9l0-0.3
			c0-0.1-0.1-0.3-0.1-0.4l-0.1-0.3l-0.1-0.2c-0.1-0.2-0.1-0.2,0-0.6c0-0.3,0.2-0.6,0.3-0.9l0.4-1l0.1-0.3c0,0,0-0.1,0-0.2l0-0.1
			c0-0.1,0.1-0.3,0.1-0.4l0,0l0,0c0.1-0.3,0.2-0.5,0.3-0.7c0.1-0.3,0.2-0.5,0.2-0.9c0.1-0.6,0.2-1.5,0.4-2.2l0.1-0.3
			c0-0.2,0.1-0.3,0-0.4l-0.1-0.3c0,0,0-0.1,0-0.1l0-0.1l0,0l0-0.1c0,0,0-0.1,0-0.1c0-0.1,0-0.1,0-0.2l0.1-0.7
			c-0.1-0.3-0.1-0.4-0.2-0.6c0-0.1,0-0.2,0-0.2l0-0.2l0-0.1l0-0.1c0.1-0.3,0.1-0.7,0.2-0.9c0,0.1-0.1,0.3-0.1,0.5
			c0-0.3,0-0.4,0.1-0.6c0-0.1,0-0.2,0-0.2c0-0.1,0-0.2,0-0.2c-0.2-0.7-0.3-1.1-0.4-1.6c0-0.3,0.1-0.8,0.1-1.1c0-0.3,0.1-0.7,0.1-1
			l0-0.2l0-0.1l0-0.1c0-0.2,0.1-0.4,0.2-0.6c0.1-0.3,0.3-0.8,0.5-1.4c0.1-0.3,0.1-0.7,0.1-1c0-0.3,0.1-0.7,0.1-1.1l0,0.2
			c0-0.5,0.1-1.1,0.2-1.8c0-0.3,0.1-0.7,0.1-1c0-0.3,0.2-0.7,0.3-1c-0.1,0.4-0.1,0.3,0,0.2c0.1-0.2,0.2-0.5,0.3-0.9
			c0-0.1,0-0.1,0-0.2c0-0.1,0.1-0.1,0.1-0.1c0,0.1,0,0.2,0,0.3c0-0.1,0-0.2,0-0.3c0-0.1,0-0.1,0.1-0.2c0-0.1,0-0.1,0-0.2l0-0.1
			c0-0.1,0-0.2,0-0.3c0-0.2,0-0.4,0-0.6c0-0.2,0-0.3,0-0.5c0-0.2,0-0.3,0-0.5c0-0.2-0.1-0.3-0.1-0.5c0-0.1-0.1-0.2-0.1-0.3
			c-0.1-0.1-0.1-0.1-0.1-0.3c-0.1-0.2-0.1-0.3-0.1-0.5c0-0.1-0.1-0.2-0.1-0.4c-0.1-0.1-0.3-0.3-0.3-0.4c0-0.1-0.1-0.1-0.1-0.2
			c0-0.1-0.1-0.2-0.1-0.4c-0.2-0.1-0.4-0.3-0.6-0.5c0.1,0,0.2-0.2,0.3-0.3c0.1-0.1,0.2-0.2,0.2-0.3c0-0.2-0.1-0.5-0.2-0.8
			c-0.1-0.4-0.2-0.8-0.5-1.7c0-0.1,0.1-0.2,0.1-0.3l-0.1,0c0,0,0-0.1,0-0.2l-0.1-0.6l0.2,0.5c0,0,0.1,0.2,0.1,0.3
			c0-0.1-0.1-0.2-0.1-0.3L27,51.5L26.9,52l0.2,0.4l0,0.2l0-0.1l0,0.1l0,0.1l-0.1,0.2l-0.1,0.5c0,0,0,0.1,0,0.2l0,0
			c0-0.1,0-0.1,0-0.2l0-0.3l-0.1,0.3c0,0.1,0,0.1-0.1,0.2l0,0c0,0,0,0,0,0c-0.1,0.3-0.2,0.5-0.1-0.2l0.1-0.5l-0.1,0.5
			c-0.2,1-0.6,1.8-1,2.6c-0.4,0.8-0.7,1.5-1,2.1c-0.3,0.6-0.6,1.2-0.8,1.8c-0.2,0.4-0.2,0.7-0.3,1c-0.1,0.2-0.1,0.6-0.2,0.9
			c0,0.7-0.1,1.2-0.2,1.7c-0.1,0.7,0,0.7,0.1,0.2c0.1-0.4,0.2-1.2,0.2-2c0-0.4,0.1-0.7,0.2-0.9c0.1-0.3,0.1-0.5,0.2-0.7
			c0.2-0.4,0.2-0.4,0.1-0.2c0.2-0.3,0.2-0.3,0.1,0.1c-0.1,0.2-0.1,0.5-0.2,0.7c0,0.3-0.1,0.6-0.1,1c0,0.8-0.1,1.6-0.2,2.2
			c-0.2,0.9-0.4,1.6-0.7,2.7c-0.4,0.9-1,2.3-1.8,4.5c0.1-0.4,0.2-0.5,0.3-0.9c-0.3,0.8-0.6,1.6-0.9,2.4c-0.3,0.9-0.6,1.7-0.9,2.8
			c0,0.2,0,0.3-0.1,0.5c0,0.2,0,0.4,0,0.6c0,0.2,0,0.3,0.1,0.5c0,0.1,0,0.2,0.1,0.3c0.1,0.1,0.1,0.2,0.2,0.3l0,0.1l0,0l0,0l-0.1-0.1
			c-0.1-0.1-0.2-0.2-0.2-0.3c0-0.1-0.1-0.2-0.1-0.4c0-0.2-0.1-0.4-0.1-0.5c0,0.2,0,0.3,0,0.5c0,0.1,0,0.2,0.1,0.4
			c0,0.1,0.1,0.2,0.2,0.4l0.1,0.1l-0.1,0.1l0.1,0.2c0.1,0.1,0.1,0.3,0.2,0.4c0.2,0.2,0.3,0.3,0.3,0.4l0.1,0.1c0,0,0,0,0,0l0,0
			c0,0,0,0.1,0,0.1l0,0.1c0,0.1,0.1,0.1,0.1,0.2c0,0.1,0.1,0.2,0.1,0.2c0.1,0.3,0.1,0.3-0.1,0c0.1,0.2,0.3,0.4,0.4,0.5l0,0
			c0,0,0,0,0,0l0,0l0,0l0.1,0.2c0.1,0.1,0.1,0.3,0.2,0.4c0.1,0.2,0.1,0.1,0.1,0.3c0,0,0,0.1,0,0.1l0,0.1c0,0.3,0,0.6,0,0.9
			c0,0.1,0,0.3,0.1,0.4l0.1,0.3c0.1,0.2,0.1,0.3,0.1,0.3c0,0.3-0.1,0.5-0.1,0.8c0,0.3,0,0.5,0,0.7c-0.1-0.1-0.1-0.1-0.2-0.2
			c0,0,0.1,0,0.1,0c-0.1,0-0.3-0.8-0.2-1l0-0.3c0,0.1,0,0,0-0.1l0-0.1l0-0.1l0,0l0,0l0,0c0,0,0,0-0.1,0l-0.1,0l0,0l0.1,0l0.1,0
			c0.1,0,0-0.1,0-0.2l0-0.3l0.1,0.3l0,0.1l0,0l0,0l0,0l0,0l0,0l0,0l0,0.1l0,0.1c0,0,0,0.1,0,0.1c0,0,0,0.1,0,0.1l0,0.3
			c0,0.1,0,0.3,0.1,0.5c0-0.2-0.1-0.4,0-0.4l0-0.4c0,0.1,0,0,0-0.1c0-0.2,0-0.2,0-0.4l-0.1-0.8l0,0c0-0.1,0-0.1-0.1-0.2
			c-0.1-0.2-0.3-0.3-0.3-0.3c-0.2,0-0.2,0-0.3,0c-0.1,0-0.1,0-0.2,0c-0.1,0-0.2,0-0.2,0.1l-0.1,0l0,0l-1-0.3l0.3,1.1
			c0,0,0,0.1,0,0.2c0,0,0,0.1,0,0.1l-0.1,0.5c0,0.1-0.1,0.4,0,0.7c0,0.2,0.1,0.3,0.1,0.5c0,0.1,0,0,0,0.1c0,0,0,0.2,0,0.3
			c0,0.1,0,0.3,0,0.5c0-0.4,0-0.8,0-0.8c-0.1-0.4-0.1-0.4-0.1-0.4c0,0,0.1,0.2,0.1,0.1c0,0,0-0.1,0-0.2c0-0.1-0.1-0.4,0-0.7
			c0,0.1-0.1,0.3,0,0.5c0,0.2,0.1,0.3,0.1,0.4l0.1,0.2c0,0,0,0.1,0,0.1c0,0.1,0,0.2,0,0.3c0,0.5,0.2,0.8,0.4,1.1
			c0.1,0.1,0.1,0.5,0.3,0.8c0,0.1,0.1,0.2,0.2,0.3c-0.1,0-0.1-0.1-0.2-0.2c-0.1,0-0.1-0.1-0.2-0.1l0,0l0,0l0,0l0,0
			c-0.2-0.4-0.2-0.6-0.3-0.7c-0.2-0.3-0.3-0.5-0.4-0.7c0,0,0,0.1,0,0.1l0.3,0.5c0.1,0.3,0.1,0.1,0.2,0.3l0.1,0.3
			c0,0,0.1,0.1,0.1,0.2l0,0c-0.1,0-0.3-0.2-0.5-0.2c-0.1,0-0.2-0.1-0.3-0.1c-0.1-0.1-0.2-0.1-0.3-0.2c-0.1-0.1-0.3-0.2-0.5-0.3
			c-0.1-0.1-0.2-0.1-0.4-0.2c0,0,0,0,0,0c0,0-0.1-0.1-0.1-0.1c0,0,0,0.1,0.1,0.1l0,0c0,0,0,0,0,0l0,0l0,0l0,0l0,0c0,0,0,0.1,0,0l0,0
			l0,0l0,0l0,0c0,0,0,0,0,0.1c0,0,0,0,0-0.1l0,0c0.1,0,0.2,0.1,0.2,0.1c0.2,0.1,0.4,0.3,0.5,0.4c0.2,0.1,0.3,0.2,0.3,0.3l0,0
			c0,0,0.1,0,0.1,0c0.1,0,0.1,0,0.1,0.1c0,0,0,0-0.1,0c0,0-0.1,0-0.2-0.1l0,0l-0.2-0.1l-0.3-0.2c-0.1-0.1-0.2-0.1-0.3-0.2
			c-0.1,0-0.1-0.1-0.2-0.1l-0.1,0l0,0c0,0,0,0,0,0c0,0,0,0,0,0.1c0,0,0,0,0,0c0,0,0,0,0,0c0,0,0,0,0,0c0,0,0,0,0,0l0,0c0,0,0,0,0,0
			l0,0l0,0c0,0,0,0,0,0l0,0c0,0,0,0,0-0.1c0,0,0,0,0,0.1l-0.1-0.1l-0.2-0.2c-0.1-0.2-0.4-0.4-0.5-0.5l0,0l0.1,0L17,84c0,0,0,0,0,0
			l0-0.3l0,0c0-0.2-0.1-0.5-0.1-0.6c-0.3-0.9-0.3-0.6-0.3-0.7c0,0,0.1,0.2,0.2,0.7c0.1,0.4,0.1,0.8-0.1,0l0,0
			c-0.1-0.3-0.1-0.5-0.2-0.6c0-0.1,0-0.1,0-0.2l0-0.2c0,0,0,0,0,0c0-0.1,0-0.1,0-0.1c0-0.1,0-0.2,0-0.2c0-0.1,0-0.2,0-0.3
			c0-0.2,0-0.4,0-0.6c0-0.5,0-1,0.1-1.6c0,0,0,0,0.1,0l0.1,0c0-0.4,0.1-0.7,0-1c0-0.1,0-0.1-0.1-0.1l0.2-0.1l0-0.3
			c0-0.3,0-0.5,0-0.7c0-0.1,0-0.2,0-0.2c0-0.1,0,0,0-0.1c0-0.1,0-0.2,0-0.3c0-0.3,0.3-0.8,0.5-2.7c0,0.7,0,1.4-0.2,2.1
			c0.2-0.8,0.3-1.7,0.3-2.5l0.1,0.5c0.1-2.7,0.2-3.5,0.5-6.1c-0.1,0.6-0.2-0.4,0.1-2.6c0.2-0.8,0.2-0.5,0.2-0.5c0,0,0,0,0.1-0.3
			c0-0.2,0.1-0.7,0.3-1.5c-0.1,0.8-0.2,1.5-0.5,2.9c0,0.1,0,0.7,0,0.9c0.2-0.8,0.3-1.9,0.5-2.8c0.1-0.5,0.2-1,0.3-1.4
			c0-0.2,0.1-0.4,0.1-0.6c0-0.1,0.1-0.3,0.1-0.4c-0.1,0.2-0.1,0.3-0.2,0.6c-0.1,0.2-0.1,0.4-0.1,0.6c0.1-0.4,0.1-0.8,0.2-1.1
			c0-0.2,0.1-0.3,0.2-0.5c0-0.1,0.1-0.1,0.1-0.2l0.2-0.3c0.2-0.4,0.4-0.8,0.6-1.2c0.1-0.3,0.1-0.5,0.1-0.6l0-0.1l0.1-0.1
			c0.1-0.2,0.1-0.2,0.1-0.3c0.2-0.7,0.2-0.2,0,0.5c0.2-0.6,0.2-0.9,0.3-1.4c0.1-0.5,0.2-1,0.3-1.7c0,0.3,0.1,0.3-0.1,1.3
			c0.2-1.2,0.5-2.3,0.7-3.5c0.1-0.3,0.7-2.2,0.6-1.6c0.2-0.6,0.4-1.2,0.5-2c0-0.4,0.1-0.8,0.2-1.2c0.1-0.4,0.1-0.8,0.2-1.2
			c0.1-0.8,0.3-1.6,0.5-2.4c0.2-0.8,0.4-1.6,0.8-2.2c0.1-0.1,0.2-0.4,0.6-0.9c0.3-0.3,0.6-0.6,0.9-0.8c0.4-0.2,0.8-0.4,1.2-0.6
			c0.4-0.2,0.8-0.4,1.2-0.6c0.1-0.1,0.3-0.1,0.5-0.2c0.2-0.1,0.4-0.1,0.8-0.3c0.3-0.2,1.1-0.4,1.7-0.8l0.5-0.3l-0.1-0.3l0,0
			c0,0,0,0,0,0c0,0.1,0.1,0.2,0.2,0.2l0.2-0.1l0.1,0l0.1,0c0.1,0,0.1-0.1,0.2-0.1l0.3-0.1c0,0,0.2,0,0.5-0.1l0.3-0.2
			c0.1-0.1,0.3-0.1,0.4-0.2c0.1-0.2,0.2-0.4,0.3-0.5c0-0.1,0.1-0.3,0.2-0.6c0,0.1,0,0,0,0l0,0l0-0.1l0-0.2c0.1-0.4,0-0.6,0-0.8
			c0-0.1,0-0.2,0-0.2c0,0,0,0.3-0.1,0.6c0,0.3-0.1,0.5-0.1,0.4c0-0.1,0-0.2,0-0.4c0-0.1,0-0.3,0-0.4c0-0.2,0-0.5,0-0.8
			c0-0.1-0.1-0.1-0.2-0.2c0,0-0.1-0.1-0.1-0.1c0,0-0.1,0-0.1-0.1c0,0,0,0,0,0c-0.1-0.1-0.3-0.2-0.4-0.3c0,0,0,0,0,0c0,0,0,0,0,0
			c-0.1-0.1-0.1-0.2-0.1-0.4c0-0.1-0.1-0.2-0.1-0.2c-0.6-1.2,0.1-0.2-0.3-1c0-0.1-0.1-0.2-0.1-0.4c0-0.1,0-0.2-0.1-0.2l0.1-0.2
			c0,0.1,0.1,0.2,0.1,0.3c0-0.1-0.1-0.2-0.1-0.3l0.1-0.1c0.1,0,0.2,0.2,0.3,0.3c0,0.1,0,0,0.1,0c0.1-0.1,0.2-0.1,0.2-0.2
			c0.1-0.1,0.1-0.1,0.2-0.2l0,0c0.2-0.3,0.2-0.4,0.2-0.6c0-0.2,0-0.3,0-0.4c0-0.1,0-0.3,0-0.5c0-0.2,0-0.3,0-0.5c0-0.1,0-0.1,0-0.2
			l0-0.3c0.1-0.7,0.2-1.5,0.4-2.2c-0.2,0.9-0.3,1.8-0.4,2.7c0.1-0.7,0.3-1.6,0.4-2.3c-0.1,0.7-0.1,1.4-0.2,1.9c-0.1,0.5,0,0.9,0,1.2
			c0,0.1,0,0.1,0,0.1c0,0.1,0,0.2,0,0.3c0,0.2,0,0.2,0,0.1c0,0,0-0.1,0-0.2c0,0,0-0.1,0-0.2c0,0,0,0,0-0.1c0-0.1,0-0.3,0-0.6
			c0,0-0.1-0.2-0.1-0.4c0-0.3,0.1-0.7,0.1-1.1c0-0.4,0.1-0.9,0.2-1.4c0-0.1,0.1-0.2,0.1-0.3c0,0,0.1-0.1,0.1-0.2
			c0.1-0.2,0.3-0.4,0.5-0.6c0.4-0.4,0.7-0.8,1.1-1c0.3-0.2,0.8-0.3,1.2-0.4c0.8-0.2,1.3-0.2,1.4-0.2c0.4,0.1,0.9,0.2,1.3,0.4
			c-0.4-0.2-0.4-0.2-0.8-0.3c1.3,0.5,1.7,0.8,2.1,1.1c0.2,0.2,0.4,0.4,0.7,0.9c0.3,0.4,0.6,1,0.8,1.9c0.1,0.3,0.2,0.6,0.2,0.8
			c0,0.4,0,0.7,0,0.9c0.1,0.4,0.1,0.5-0.1,0c0,0,0-0.1,0-0.1l0,0.1l0.2,0.8c0,0.2,0.2,0.3,0.3,0.4c-0.1,0.2-0.2,0.4-0.2,0.6
			c0,0.3,0,0.4,0,0.6c0,0.2-0.1,0.4-0.2,0.6c-0.1,0.2-0.1,0.5-0.2,0.7l-0.1,0.4l0,0.3l0,0c0,0.1,0,0.2,0,0.4c0,0.1,0,0.3-0.1,0.4
			c0,0.2-0.1,0.3-0.1,0.5c0,0.2-0.1,0.4-0.1,0.6c0,0.1,0,0.1,0,0.2l0,0.3l0.2,0.1c0,0,0,0,0.1,0c0,0,0,0.1,0,0.1l0.1,0l0,0l-0.1,0
			l0-0.1c0,0,0,0,0,0l0,0l0-0.1l0.1,0.1c0,0,0,0,0,0l0,0l0,0c0,0,0,0,0,0l-0.1,0l0,0l0.1,0c0,0,0.1,0.1,0.1,0.1l0-0.1l0.6,0h0
			c0,0,0,0,0,0c0,0,0,0,0,0h0c0,0,0,0,0,0c0,0,0,0,0,0c0,0,0,0,0,0l-0.6,0l0,0l0.6,0c0,0,0,0,0,0l-0.5,0l0,0l0.5,0c0,0,0,0,0,0
			c0,0,0,0,0,0h0c0,0,0,0,0,0h0c0,0,0,0,0,0h0c0,0,0,0,0,0c0,0,0,0,0,0c0,0,0,0,0,0c0,0,0,0,0,0c0,0,0,0,0,0h0c0,0,0,0,0,0l0,0
			c0,0,0,0,0,0h0l0.1,0l0,0l0,0c0,0,0,0,0,0c0,0,0,0,0,0l0,0l0,0h0c0,0,0,0,0,0h0l0,0h0c0,0,0,0,0,0h0l0,0h0c0,0,0,0,0,0
			c0,0,0,0,0,0c0,0,0,0,0,0c0,0-0.1,0-0.1,0l0,0c0,0,0,0,0,0l0,0h0l0,0l0,0c0,0,0,0,0,0s0,0,0,0l0,0c0,0,0,0,0,0l0,0l0.1,0
			c0,0,0,0,0,0l0.1,0l0,0l-0.1,0c0,0,0,0,0,0l0.1,0l0,0l0,0l0,0c0,0,0,0,0,0l0,0h0c0,0,0,0,0,0c0,0,0,0,0,0l0,0l0,0l0,0c0,0,0,0,0,0
			l0,0l0,0h0c0,0,0,0,0,0c0.3-0.2,0.3-0.2,0.2-0.1c0,0-0.1,0.1-0.2,0.2c0,0,0,0,0,0h0l0,0c0,0,0,0,0,0h0l0,0l0,0l0,0c0,0,0,0,0,0
			c0,0,0,0,0,0h0.1l0,0l-0.1,0c0,0,0,0,0,0c0.1-0.1,0.1-0.1,0.2-0.2c0.1-0.1,0.3-0.2,0.5-0.3c0.3-0.2,0.7-0.4,1.1-0.5
			c0.5-0.1,0.3,0-0.2,0.2c-0.2,0.1-0.5,0.3-0.9,0.4c-0.2,0.1-0.3,0.2-0.5,0.3c-0.1,0-0.1,0.1-0.2,0.1l0,0l0,0c0,0,0,0,0,0l0,0
			c0,0,0,0,0,0l0,0c0,0,0,0,0,0l0,0.1c0,0,0,0-0.1,0c0,0,0,0,0,0c0,0,0.1,0,0.1,0.1c0.1,0.1,0,0,0.1,0l0.1-0.1
			c0.1,0,0.1-0.1,0.2-0.1c0.2-0.1,0.3-0.2,0.4-0.2c0.3-0.2,0.6-0.3,1-0.5c0.8-0.3,1.9-0.8,4.3-1c-0.8,0.1-1.6,0.3-2.3,0.5
			c0.8-0.1,1.6-0.2,2.6-0.3c0.5-0.1,1.1-0.2,1.6-0.2c0.1,0,0.3,0,0.4,0l0.2,0l0.3,0l0.3,0c0.1,0,0.3-0.1,0.4-0.1
			c0.2-0.1,0.4-0.2,0.5-0.2c-0.1,0-0.2,0.1-0.4,0.2c-0.1,0-0.3,0.1-0.5,0.2c-0.1,0-0.3,0-0.4,0.1c-0.6,0.1-1,0-1.5,0.1
			c-1,0.1-1.5,0.1-0.1-0.2c0.4-0.1,0.8-0.1,1.4-0.1c0.1,0,0.3-0.1,0.5-0.1c0.1,0,0.2,0,0.3-0.1c0.1,0,0.2-0.1,0.3-0.1
			c0.3-0.2,0.6-0.3,1-0.6c0,0,0.4-0.1,0.9-0.5c0.3-0.2,0.6-0.4,0.9-0.6c0.3-0.2,0.7-0.4,1.1-0.6l0,0.2c0.7-0.4,1.1-0.6,1.3-0.8
			c0.1-0.1,0.2-0.1,0.4-0.2c0.1,0,0.1-0.1,0.2-0.1c0.1,0,0.2-0.1,0.4-0.2c0.1-0.1,0.4-0.4,0.5-0.6l0.1-0.2l0.1-0.2
			c0.1-0.2,0.2-0.3,0.2-0.5c0-0.2,0-0.4,0-0.5c0-0.1,0-0.2,0-0.3c0-0.4,0-0.6,0-0.9c0-0.5,0-0.7,0.1-1c-0.2-3.6,0,2.5-0.4-1.7
			c0-1.5,0.1-2.7,0.1-4c0-0.8-0.1-1.4-0.2-2.2c-0.1-0.7-0.2-1.6-0.4-2.4c0,0,0-0.1,0-0.1l0-0.2l-0.1,0l-0.1-0.3l0-0.1l0-0.2
			c0-0.1-0.1-0.3-0.1-0.4l0-0.1l0,0l0.1-0.3c0-0.1,0-0.2,0-0.3c0-0.2,0-0.3,0-0.3c0-0.1,0-0.1,0-0.1c0,0,0,0,0,0.1
			c0-0.2-0.1-0.4-0.1-0.5c0-0.1-0.1-0.2-0.1-0.3l0,0l0,0l0,0l0,0l0,0c0,0,0,0,0,0c0-0.1,0-0.1,0-0.2c0-0.1,0-0.3-0.2-0.6
			c-0.1-0.1-0.1-0.2-0.3-0.4c-0.1-0.1-0.1-0.2-0.2-0.2c0,0-0.1-0.1-0.1-0.1l-0.1-0.1c-0.2-0.1-0.5-0.6-1-1.4
			c-0.1-0.2-0.3-0.4-0.4-0.6c-0.1-0.1-0.1-0.2-0.1-0.3c0-0.1,0-0.1,0-0.3c0-0.2,0-0.5-0.1-0.8c0-0.3-0.1-0.6-0.1-0.9
			c-0.1-0.1,0-0.3,0.1-0.4l0.3-0.3c0.1-0.1,0.2-0.3,0.3-0.5c0.1-0.2,0-0.4,0-0.6l-0.1-0.4c-0.1-0.2-0.2-0.5-0.2-0.7
			c-0.1-0.7,0.2,0.3,0.2,0.1c-0.1-0.5-0.2-0.9-0.2-1.3c-0.1-0.4-0.1-0.6-0.2-0.9c0-0.6,0-0.9,0.1-1.1c0,0,0,0,0,0l0,0c0,0,0,0,0,0
			C57,0.9,57,0.9,57,1c0,0.2,0.1,0.5,0.2,0.8c0.1,0.3,0.1,0.6,0.3,1.1c0,0.2,0.1,0.3,0.1,0.5l0,0l0,0l0,0c0,0.1,0,0.1,0,0.2
			c0,0.1,0,0.2,0.1,0.4L58,4.9C58,5,58,5.1,58.1,5.3c0,0,0,0,0,0.1c0,0,0,0.1,0.3,0.2c0.1,0,0.1,0,0.2,0c0.1,0,0.1-0.1,0.1-0.1
			c0.1-0.1,0.1-0.1,0.1-0.1c0,0,0-0.1,0-0.1l0-0.1l0-0.3c0,0.2,0,0.3-0.1,0.4c0,0,0,0.1-0.1,0.2c0,0.1-0.3,0.1-0.4,0.1
			c-0.1,0-0.1-0.1-0.2-0.1c-0.1-0.1-0.1-0.1-0.1-0.2c0-0.1,0-0.1,0-0.1C58,5,58,5,58.1,5c0,0,0,0,0.1,0.1l0,0l0,0l0,0c0,0,0,0,0,0
			c0,0.1,0.1,0.1,0.1,0.2l0,0.1c0,0,0,0.1,0.2,0.1c0.1,0,0.2-0.1,0.2-0.1c0,0,0-0.1,0-0.1c0,0,0,0,0-0.1c0,0,0-0.1,0-0.2
			c0,0,0,0,0,0c0,0,0.1,0,0.1,0c0,0,0,0,0,0l0,0l0,0c0,0,0,0,0,0l0,0l0-0.1c0-0.1,0-0.1-0.1-0.2c0-0.1,0-0.2,0-0.3
			c0.1-0.2,0.2-0.4,0.4-0.5c0.2-0.1,0.5-0.1,0.7,0.1C60,4.3,60,4.7,60.1,5c-0.1-0.4,0-0.8-0.3-1c-0.1-0.1-0.3-0.2-0.4-0.2
			c-0.2,0-0.3,0-0.4,0.1c0.2-0.1,0.5-0.1,0.8,0c0.2,0.1,0.4,0.4,0.4,0.6c0,0.2,0.1,0.4,0.1,0.6c0,0.1,0,0.2,0.1,0.1
			C60.5,5,60.6,5,60.7,4.9c0.1,0,0.1,0,0.2,0c0.1,0,0.2,0,0.2,0.1l0,0l0,0c0.2,0.2,0.4,0.4,0.4,0.6c0.1,0.2,0,0.3,0,0.1
			c0-0.1-0.1-0.2-0.1-0.3c0-0.1-0.2-0.2-0.3-0.3c0.1,0.1,0.2,0.2,0.3,0.3c0.1,0.1,0.1,0.2,0.1,0.3c0,0.1,0,0.2,0,0.2l0,0l0,0l0,0
			l0,0l0,0c0,0,0,0,0.1,0.1c0.1,0,0.1,0,0.2,0c0.1,0,0.1,0,0.1,0s-0.1,0-0.2,0c0,0-0.1,0-0.2,0c0,0-0.2,0-0.2-0.2l0,0
			c0-0.1-0.1-0.3-0.2-0.5C61.1,5.5,61,5.4,61,5.2c0,0-0.1-0.1-0.2,0c-0.1,0-0.2,0-0.3,0.1c-0.1,0-0.2,0-0.3,0
			c0.1-0.1,0.2-0.1,0.3-0.2c0.2-0.1,0.3,0,0.4,0l0,0l0,0l0.1,0.1l-0.1-0.1l0,0l0,0c-0.1,0-0.3-0.1-0.4,0c-0.1,0.1-0.3,0.1-0.4,0.2
			c-0.1,0-0.1-0.2-0.1-0.4c0,0.1,0,0.3,0.1,0.4C60.1,5.3,60,5,60,4.8c0-0.1-0.1-0.2-0.1-0.3c0-0.1-0.1-0.1-0.1-0.2
			c-0.2-0.2-0.3-0.1-0.3-0.1c0,0,0.1,0.1,0.2,0.2c0.1,0.3,0.1,0.6,0.2,0.9c-0.1-0.3-0.2-0.5-0.1-0.3c0,0.1,0,0.3,0.1,0.5
			c0,0.1,0,0.1,0.1,0.2c0,0,0,0.2,0.1,0.1c0-0.1,0.2,0.1,0.3,0.2c0,0,0.1-0.1,0.1-0.1c0.1-0.1,0.1-0.1,0.2-0.1
			c0.1-0.1,0.1,0,0.1-0.1c0,0.1,0.1,0.2,0.1,0.3c0,0,0.1,0,0.1,0.1l0.1,0.3l0-0.1c0,0.2,0,0.3,0.2,0.4c0.1,0.1,0.3,0.2,0.4,0.2
			l0.2,0l0.3,0c0.1,0,0.2,0.1,0.3,0.1c0.1,0.1,0.2,0.2,0.2,0.3c0.1,0.1,0.1,0.3,0.2,0.5c0,0.1,0.1,0.1,0.1,0.2c0,0,0,0,0,0.1
			c0,0,0,0,0,0c0,0,0-0.1,0,0.1l0,0.5l0,0.2l0,0.1l0,0l0,0l0,0l0,0l0,0l0,0.8c0,0.2,0,0.4,0,0.4l-0.1,0.5c0,0.3-0.1,0.7-0.2,0.9
			c0,0.1-0.1,0.4-0.1,0.5c0,0.1,0,0.2,0,0.3c0,0.1,0,0.2,0,0.3l0.1,0.5c0,0.2,0.1,0.4,0.1,0.5l0,0.2l0.2,0.1c0.1,0,0.1,0,0.2,0.1
			c0.1,0.3,0.1,0.6,0.2,0.9l-0.1,0l0-0.1l0,0l0,0c0,0,0,0-0.1,0.1c0-0.3-0.1-0.6-0.1-0.8c0.1,0.4,0.1,0.7,0.1,0.8l0,0l0,0l0,0
			c0,0,0,0,0,0l-0.1,0c0,0,0,0,0-0.1l0,0.1l0,0c-0.1,0.1-0.3,0.2-0.3,0.4l0,0.1l0,0l0,0l-0.1,1.1l0.3-0.2l0.1,0.4l0.3,1.1
			c0.2,0.7,0.4,1.4,0.6,2.1c-0.2-0.1,0.2,1.1,0.4,2.4c0-0.5,0.3,0.4,0.5,1.8c0.3,1.4,0.5,3,0.6,4.1c-0.1,0.1-0.1-0.4-0.5-2.9
			c0.1,1.4,0.3,2.2,0.4,3.1c0,0.3,0.1,0.5,0.1,0.7c0,0.1,0.1,0.2,0.1,0.2l0,0c0,0.1,0,0.2,0,0.3c0,0.3,0,0.5,0,0.8
			c0,0.3,0,0.5-0.1,0.8c0,0.1,0,0.1-0.1,0.2c0-0.1,0.1-0.1,0.1-0.2c0-0.4,0-0.7,0-0.9c0,0.2,0,0.5,0,0.9c-0.1,0.3-0.4,0.6-0.7,0.8
			c-0.4,0.3-0.7,0.5-1,0.8c-0.6,0.4-0.9,0.7-0.6,0.5c0,0,0,0,0.1-0.1c-0.7,0.6-1.5,1.4-2.4,2.2c-1,1-2.1,1.9-3.3,2.7
			c-0.6,0.4-1.1,0.7-1.6,1c-0.5,0.3-1,0.5-1.5,0.7c-0.9,0.4-1.5,0.6-1.6,0.7c0,0,0.4-0.4,0.7-0.5l-1.7,0.8c-0.6,0.3-1.2,0.7-1.5,1.3
			c-0.3,0.6-0.2,1.3-0.3,1.9c0,0.6,0,1.3-0.1,1.9c-0.1-0.7-0.9,1.7-0.5-1.7c-0.2,1-0.3,2.2-0.7,4.2c0.2-0.6,0.6-1.6,0.4-0.7
			c-0.4,1.2-0.5,1.7-0.6,2.2c0,0.3-0.1,0.6-0.1,1c0,0.4,0.1,1,0,1.7c0.1-0.9,0.3-0.1,0.2,1.4c0,0.1,0,0.3,0.1,0.4
			c-0.1-0.1-0.1-0.1-0.2-0.1c0,0-0.2,0-0.2-0.4c0,0,0-0.1,0-0.1l0,0.1c0,0.2,0.1,0.4,0.1,0.5l0.2,0.3c0,0.1,0.1,0.1,0.1,0.2
			c0,0.1,0,0.2,0,0.3c0,0.2-0.1,0.5-0.1,0.7l0,0.1c0,0,0,0-0.1,0.1c-0.1,0.1-0.1,0.2-0.1,0.3c0,0.2,0,0.4,0,0.5l0.1,0.8
			c0-0.5-0.1-0.5-0.1-0.3c0,0.1,0,0.3,0,0.4l0,0.1l0,0.1l0,0l0,0c-0.4-0.1-0.1,0-0.2,0l0,0l0,0l0,0.1l0,0.1c0,0.2,0,0.3,0,0.4
			c0-0.1,0,0.1,0.1,0.4c0.1,0.3,0.1,0.7,0.2,1.3c0.1,1,0.3,2.3,0.3,2.8c0-0.6-0.1-1.1-0.1-1.7c0.1,1.1,0.3,1.9,0.3,2.6
			c0,0.7,0.1,1.2,0.1,1.8c0,0.1,0,0.1,0,0.2c-0.1,0-0.2,0-0.3,0.1c0,0,0.1,0,0.3-0.1c0,0.1,0,0.2,0,0.2c-0.1,0.2-0.2,0.3-0.2,0.4
			c0-0.1,0.1-0.1,0.1-0.2c0.1-0.1,0.1-0.2,0.1-0.3c0.1,0.4,0.1,0.8,0.2,1.4c0.1,0.7,0.2,1.5,0.2,2.7c-0.1-0.5-0.4-1.3-0.4,1
			c0.1,0.4,0.2,1.3,0.4,2.4c0.1,0.6,0.3,1.2,0.3,1.9c0,0.3,0,0.7,0,1.1c0,0.2,0,0.4,0,0.5c0,0.1,0,0.3,0.1,0.4
			c0.1,0.1,0.2,0.1,0.4,0.2c0,0,0.2,0.1,0.2,0.2c0,0.1,0.1,0.1,0.1,0.2c0,0.1,0,0.2,0.1,0.3l0,0.2L51,78.9C50.8,79,50.5,79,50.4,79
			c0,0,0,0,0,0c0,0-0.1,0-0.1-0.1c0,0,0,0,0,0l0-0.1l0-0.1l0-0.1l0,0c0,0,0,0,0,0l0,0c0.2-0.1,0.4-0.1,0.5-0.2c0-0.1,0-0.1,0-0.2
			c0,0,0,0,0,0.1l0,0l0,0c0-0.1,0-0.1-0.1-0.1l0,0v0l0,0c0,0,0,0,0,0l0,0l-0.1-0.1l0-0.1l0,0l0,0c0-0.1-0.1,0-0.2,0l0,0v0l0,0l0,0
			c0,0,0,0,0,0l0,0l0,0c0,0-0.1,0-0.1-0.1c-0.2-0.1-0.2-0.4-0.2-0.6c0-0.2,0-0.4,0-0.6c0-0.4,0-0.8,0-1.1c0-0.7-0.2-1.4-0.2-1.9
			c0,0.8,0,0.9,0,1.2c0,0.2,0,0.5-0.1,1.9c-0.1,0.5-0.1,0.1-0.1-0.5c0-0.3,0-0.6,0-0.9c0-0.3,0-0.6-0.1-0.8c0.1,0.5,0,1.1,0,1.7
			L49.3,77l0,0.2c0,0.1,0,0.3,0,0.4c0,0.1,0,0.2,0.1,0.3c-0.1,0-0.2,0.1-0.2,0.1c-0.1,0-0.1,0.1-0.2,0.2c0,0.1-0.1,0.2-0.1,0.2
			c0,0.1,0,0.1,0,0.2c0,0,0,0.1,0,0.2l0,0.1c0-0.1,0.1,0.3,0.3,0.6c0.2,0.4,0.2,0.8,0.3,1.4c0.2,1.1,0.3,2.3,0.4,2.2l-0.3-2.2
			l-0.1-0.6c0-0.2-0.1-0.3-0.1-0.5l-0.2-0.5L49.1,79c0,0,0,0,0-0.1c-0.1,0-0.1,0,0,0c0,0,0-0.1,0-0.2c0-0.1,0-0.1,0-0.3
			c0,0,0-0.1,0.2-0.3c0.1,0,0.1-0.1,0.2-0.1c0,0,0,0.1,0.1,0.1c0,0-0.1,0.1-0.1,0.1l0,0.1c0,0,0,0,0,0c0,0,0,0,0,0
			c-0.1,0.1-0.1,0.1-0.1,0.1c0,0.1,0,0.1,0,0.2c0,0,0,0.1,0,0.1c-0.1,0-0.1,0-0.1,0.1l0.2,0.2c0,0.1,0,0.1,0,0.2
			c0.1,0.2,0.1,0.4,0.2,0.6c0.1,0.4,0.2,0.9,0.2,1.4c0.1,1,0.3,2.1,0.4,3.3c0,1-0.4-0.7-0.4-0.7c0,0.3,0.2,1.2,0.3,2.2
			c0,0.3,0,0.5,0,0.8c0,0.2,0,0.4,0.1,0.6c0.1,0.4,0,0.6,0,0.7c0-0.6-0.2-1.1-0.2-1.7c0,0.6,0.1,1,0.1,1.6l0,0.4c0,0.2,0,0.3,0,0.5
			c0,0.3,0.1,0.5,0.1,0.7l0,0.1c0,0,0,0,0,0l0,0c0,0.1,0,0.1,0,0.2c0,0.2,0,0.3,0,0.4c0,0.3,0,0.7,0,0.8c0,0,0,0.1,0,0.1
			c0,0-0.1,0.2-0.1,0.2c0,0.1,0,0.1,0,0.2c0,0.3,0.1,0.4,0.1,0.5c0,0.2,0,0.1,0,0.4c0,0.2,0,0.4,0,0.6c0,0.1,0,0.2,0,0.4
			c0,0.1,0,0.2,0,0.3c0,0.1,0,0.2-0.1,0.4c0,0.2,0,0.5,0.1,0.7c0.1,0.3,0.2,0.6,0.2,0.7c0,0,0,0,0,0l0,0v0l0,0l0,0l0,0l0,0.1
			c0,0.1,0,0.1,0,0.2c0,0.1,0,0.1,0,0.2l0-0.3l0-0.1l0,0l0,0l0,0l0,0l0,0h0c0,0,0,0,0,0c0,0,0,0,0,0h0l0.1,0l0,0l0,0
			c-0.1,0,0,0-0.1,0c0,0,0,0,0,0c0-0.1,0-0.2,0-0.3c0-0.2,0-0.4,0.1-0.5c0-0.1,0.1-0.1,0.2-0.1c0.1,0,0.3,0.1,0.4,0.4
			c0,0.1,0.1,0.2,0.1,0.5c0,0.2,0,0.5,0,0.8l0,0.2L51,96.7c-0.1,0-0.1,0-0.2,0.1c0,0,0,0,0-0.1l-0.1,0.1c0,0-0.1,0-0.1,0
			c-0.1,0-0.1,0-0.2,0c0,0,0,0,0,0.1c0,0,0,0-0.1,0l-0.1,0l0,0h0c0,0,0.1,0,0.1,0.1c0,0.1,0,0.2-0.1,0.3l-0.1,0.1c0,0,0,0,0,0
			c0,0.2-0.1,0.4-0.2,0.6c-0.1,0.1-0.2,0.3-0.2,0.5c-0.1,0.2-0.1,0.3-0.1,0.6c-0.1,0.8-0.2,1.5-0.2,1.8c-0.3,1.6-0.2-2.4-0.4-1.1
			c0,0.1,0,0.9,0,1.3c-0.1,1-0.1-0.4-0.2,1.8c0.1,0.4-0.1,4.5,0.1,1.1c0,1.1,0,1.7,0,2.3c0,0.3,0,0.6,0,1c0,0.4-0.1,0.9-0.1,1.6
			c0-0.8,0.6,2.2,0.7,4.4c0-0.1-0.1,0.4-0.1,0.6c0,2.2-0.5,3.9-0.9,5.5c-0.4,1.6-0.8,3.2-1.4,5.2c-0.1,0.4-0.7,2.3-0.6,1.4
			c-0.1,0.6-0.2,1.1-0.5,2.4c-0.8,2.4,0.7-2.8,0.1-1c0,0.1-0.2,0.9-0.4,1.9c-0.2,1-0.6,2.2-0.5,3.2c0-0.1,0.1-0.5,0.1-0.9
			c0.1-0.4,0.3-1,0.4-1.6c0.3-1.2,0.6-2.5,0.8-3.4c0.1,0,0,0.8-0.3,2.1c-0.1,0.7-0.3,1.4-0.5,2.3c-0.1,0.4-0.1,0.9-0.1,1.4
			c0,0.1,0,0.2,0,0.3c0,0.1,0.1,0.1,0.1,0.3c0,0.1,0.1,0.3,0.1,0.4c-0.1,0-0.1,0-0.2,0c0-0.2-0.1-0.5-0.2-0.6c0-0.3,0-0.7,0-1
			c0-0.1,0,0-0.1,0.2c0,0.1,0,0.3,0,0.5c0,0.1,0,0.2,0,0.3c0,0.1,0.1,0.2,0.1,0.3c0,0.1,0.1,0.3,0.1,0.4c0,0-0.1,0-0.1,0
			c0,0,0,0,0,0l0,0l0,0l0.1,0.2c0,0,0,0,0,0l0,0c0,0,0,0,0,0l0.1,0c0,0,0,0.1,0,0.1c0,0,0,0.1,0,0.1l0,0l0,0c0,0,0,0,0,0l-0.1-0.2
			c0,0,0.1,0.3,0.1,0.3l0,0c0,0,0,0,0,0c0,0,0,0,0,0l0,0c0,0,0,0,0,0l0,0c0,0,0,0,0,0c0,0,0,0,0,0c0,0,0,0,0,0l0,0c0,0,0,0,0,0
			c0,0,0,0,0,0c0,0,0,0,0,0c0,0,0,0,0,0c0,0,0,0,0,0c0,0,0,0,0,0c0,0,0,0,0,0c0,0,0,0,0,0c0,0,0,0,0,0c0,0,0,0,0.1,0c0,0,0,0-0.1,0
			c0,0,0,0,0,0c0,0,0,0,0-0.1c0,0,0,0,0,0c0.1,0,0.1,0-0.1,0l0,0c0,0,0,0,0-0.1c0,0,0-0.1,0-0.1c0.1,0,0.1,0,0.2,0c0,0,0,0.1,0,0.1
			c0,0,0,0,0,0l0,0.1l0,0c0,0-0.1,0-0.1,0c0,0,0,0,0,0c0,0,0,0,0,0l0.2,0l0.2,0c0,0,0,0,0,0c0,0,0-0.1,0-0.2l0-0.1c0,0,0,0,0.1,0
			c0,0,0,0,0,0c0,0,0,0,0,0l0,0l0,0c0,0,0,0,0,0c0,0,0,0,0,0c0,0,0,0,0,0l0,0c0,0,0,0,0,0l0,0l0,0l0,0c0,0,0,0,0,0c0,0,0,0,0,0l0,0
			c0.1,0,0.1,0,0.2,0.1c0.1,0.1,0,0.1,0.1,0.1c0,0.1,0,0.1,0,0.1c0,0.1,0,0.1,0,0.2c0,0.4-0.1,0.5-0.1,0.6c0,0.1,0.1,0.2,0.1,0.2
			c0,0,0,0.1,0,0.1l0,0l0,0l0,0l0,0c0,0,0,0-0.1-0.1c0,0,0,0,0,0.1l0,0c0,0,0,0,0,0l0,0c0,0,0,0,0,0l0,0l0,0c0,0,0,0,0,0l0,0
			c0,0,0,0,0,0l0,0l0,0l0,0l0,0c0,0,0,0,0,0l0,0c0,0,0,0,0,0c0,0,0,0,0,0c0,0,0,0,0,0c0,0,0,0,0,0c0.1,0.1,0.2,0.2,0.2,0.3
			c0,0.1,0,0.2,0,0.3c0,0.1,0,0.2,0,0.3c0,0.1,0,0.1,0,0.1l0.2,0.2c0.3,0.3,0.3,0.7,0.4,0.9c0.1,0.2,0.2,0.5,0.3,0.7
			c0,0.1,0.1,0.1,0.2,0.2c0.1,0,0.2,0.1,0.3,0.1c0.2,0.1,0.5,0.3,0.6,0.5c0.2,0.3,0.3,0.4,0.4,0.5l0.1,0.1c0,0,0,0,0,0c0,0,0,0,0,0
			c0,0,0,0,0.1,0c0,0,0,0,0,0c0,0,0,0,0,0c0.3,0.1,0.6,0.3,0.8,0.4c-0.2-0.1-0.5-0.2-0.8-0.4c0,0-0.1,0-0.1,0c0,0,0,0,0-0.1
			c0,0,0,0,0,0.1c0,0,0,0,0,0c0,0,0,0.1,0,0.1c0,0,0,0,0,0c0,0,0,0,0-0.1c0,0,0,0,0,0l0,0c0,0,0.1,0,0.1,0l0.2,0.1
			c0.4,0.2,0.9,0.4,1.2,0.8c0.1,0.2,0.1,0.4,0.1,0.7c0,0.1,0,0.3-0.1,0.3c-0.1,0-0.2,0.1-0.3,0.1c-0.5,0.1-1,0.3-1.5,0.4
			c-1,0.2-2,0.5-3.1,0.7l0,0l0,0c-0.1,0.5-0.7,0.6-1.1,0.7c-0.5,0-0.9,0-1.4,0c-0.5,0-0.9,0-1.3-0.1c-0.2,0-0.4,0-0.6-0.1
			c-0.2,0-0.4-0.1-0.6-0.1c-0.5,0-1,0-1.4-0.1c-0.4-0.1-0.6-0.2-0.3,0c0.5,0.1,1,0.2,1.6,0.2c0.7,0.1,0,0.1-0.7,0.1
			c-0.7-0.1-1.3-0.2-0.3,0c-0.2-0.1-0.4,0-0.7-0.2c-0.1,0-0.2-0.1-0.3-0.1c-0.2-0.1-0.2-0.2-0.4-0.3c-0.1-0.1-0.3-0.2-0.3-0.3l0-0.2
			c0-0.1-0.1-0.1-0.1-0.2c0-0.2,0.1-0.3,0.1-0.5c0,0,0-0.1,0-0.1l0,0c0,0,0-0.1,0-0.1l0.1-0.1c0,0,0,0,0,0.1c0,0,0,0,0,0
			c0.1-0.1,0.1-0.1,0.1-0.1l-0.2,0.2c0,0,0,0.1,0,0.1l0.2-0.2c0,0,0,0,0-0.1c0,0,0,0,0,0l0.2-0.2h0c0,0-0.1,0-0.1,0l-0.1,0.1
			c0,0,0-0.1,0.1-0.1c0,0,0,0,0,0c0,0,0,0,0,0l0.1-0.1c0,0,0,0,0,0c0,0,0,0,0,0l0.1-0.1h0c0,0,0,0,0,0c0.1-0.3,0.2-0.3,0.2-0.4
			c0-0.1,0-0.1,0-0.2c0,0,0,0,0,0.1l0.3-0.3c0,0,0,0,0-0.1c0,0,0.1,0,0.1,0l0-0.1c0,0,0,0,0,0c0,0,0,0,0,0l0.2-0.2
			c0,0.1,0,0.1,0,0.2c0-0.1,0-0.1,0-0.2l0.1-0.1c0,0-0.1,0-0.1,0c0,0,0,0,0,0c0.3-0.6,0.5-1.1,0.6-1.4c-0.1,0.3-0.4,0.9-0.6,1.4
			c0,0,0,0,0,0c-0.1,0-0.1,0-0.2,0c0,0,0-0.1,0-0.1c0.1-0.3,0.3-0.7,0.5-1.1c0.2-0.3,0.2-0.9,0.4-1.4c0.1-0.2,0.1-0.2,0.2-0.4
			c0-0.1,0.1-0.2,0.1-0.4c0-0.1,0-0.2,0-0.4c0-0.1,0.1-0.2,0.1-0.2c0,0,0-0.1,0-0.2c0-0.2,0-0.5,0.1-0.7c0-0.1,0-0.1,0-0.1l0-0.1
			c0,0,0,0,0-0.1c0,0,0-0.1,0.1-0.1c0,0,0-0.1,0-0.1c-0.1,0-0.1,0.1-0.1,0.1c0,0.1,0,0.1,0,0.1c0,0.1,0,0.1,0,0.1
			c0,0.1-0.1,0.3-0.1,0.5c0,0.2,0,0.3-0.1,0.4c0,0.1,0,0.1-0.1,0.2c-0.1,0.2,0,0.3,0,0.3c0-0.1,0-0.1,0-0.3c0-0.2,0-0.1,0.1-0.2
			c0-0.1,0-0.3,0-0.4c0-0.1,0-0.2,0-0.3l0-0.2l0-0.1l0-0.1c0,0,0-0.1,0-0.1c0,0,0.1-0.1,0.1-0.1c0,0,0,0.1,0,0.1l0.1-0.2
			c0,0,0,0,0,0c0,0,0,0,0-0.1l0.1-0.1l0,0c0,0,0,0,0.1,0.1l0,0l0,0l0,0c0,0,0,0,0,0c0.1,0.1,0.1,0.2,0.2,0.3l0,0l0-0.1l0-0.1l0-0.1
			l0,0c0-0.1,0-0.2,0-0.1l0,0c0,0,0,0-0.1,0c0-1.6,0-3.4,0.2-5.1c-0.2,1.2-0.1,0.6-0.3,2.5c0.2-0.9,0,1.1,0,2.7
			c-0.1,0.1-0.3,0.3-0.3,0.4c0,0.1,0,0.1,0,0.1l0,0.1c0,0.1,0,0.1,0,0.2c0,0.1,0,0.2,0,0.2c0,0.2,0,0.4,0,0.5c0,0,0,0.1,0,0.1
			c0,0,0,0,0-0.1c0,0,0,0,0,0c0,0,0,0-0.1,0.2c0,0.2,0,0.2,0,0.2l0,0.1l0,0.2l-0.1,0.2l0,0.1c-0.1-0.1-0.1-0.1,0,0l0,0l0,0l0,0.1
			l0,0.1l0,0.1l0,0.2l-0.1,0.3c0,0.2-0.1,0.4-0.1,0.5c0,0.2,0,0.2-0.1,0.4c-0.2,0.3-0.4,0.7-0.6,1.1c-0.1,0.1-0.1,0.3-0.1,0.4
			c0,0,0,0,0,0c-0.1,0.1-0.2,0.1-0.2,0.2c0,0.1-0.1,0.1-0.1,0.2l0,0.1c0,0.1,0,0.2-0.1,0.2l0,0c0,0,0,0,0,0c0-0.1,0.1-0.4,0.1,0
			c0,0,0,0.1,0,0.1c-0.1,0.1-0.2,0.3-0.2,0.3c0.1-0.1,0,0-0.1,0.1c0,0,0,0-0.1,0c0,0-0.1,0.1-0.2,0.1c-0.1,0.1-0.1,0.1-0.1,0.2
			c-0.1,0.2-0.1,0.3-0.2,0.5c0,0.1-0.1,0.2,0,0.4c0,0.1,0,0.1,0.1,0.2c0,0,0,0.2,0,0.2c0-0.1,0-0.1,0-0.2c0,0,0-0.1-0.1-0.2
			c0-0.1,0-0.2,0-0.3c0-0.1,0.1-0.2,0.1-0.3l0.1-0.2c0-0.1,0-0.1,0.3-0.4c0.1,0,0.1-0.1,0.1-0.1c0,0,0,0,0,0c0,0-0.1,0-0.1,0.1
			c-0.2,0.2-0.2,0.3-0.3,0.4c0,0.1,0,0.1-0.1,0.2c-0.1,0.1-0.1,0.3-0.1,0.4c0,0,0,0,0,0.1c0,0,0,0,0,0.1c0,0,0-0.1,0-0.1
			c0-0.2,0.1-0.4,0.2-0.6c0-0.1,0-0.1,0.2-0.3c0,0,0.1,0,0.1-0.1c0,0.1-0.1,0.1-0.1,0.2c0,0,0,0.1-0.1,0.1c-0.1,0.2-0.1,0.3-0.2,0.5
			c0,0.1,0,0.1,0,0.2c0,0.1,0.1,0.1,0.1,0.2c0,0.1,0,0.3,0.1,0.5c0.2,0.2,0.5,0.6,0.9,0.6c0.1,0,0,0,0.1,0.1
			c0.1,0.1,0.2,0.1,0.3,0.1l0.4,0.1c0,0,0,0,0,0l0,0l0,0l0,0l0,0c0,0,0,0,0,0c0.4,0.1,0.6,0.1,0.8,0.1c0.2,0,0.5,0,0.7,0.1
			c0.1,0,0.2,0,0.3,0c0.1,0,0.2,0,0.3,0c0.2,0,0.4,0,0.5,0c1.3,0.1-0.6,0,0.2,0.1c0.6,0,1.2,0,1.8,0c0.1,0,1,0.2,1.7-0.2
			c0.2-0.1,0.3-0.3,0.4-0.3l0,0c0,0,0,0,0,0.1c-0.1,0.2-0.4,0.5-1,0.6c0.1,0,0.2,0,0.4-0.1c0.2-0.1,0.5-0.3,0.7-0.6l0.9-0.2
			c0.7-0.1,1.6-0.3,2.5-0.5c0.4-0.1,0.8-0.2,1.3-0.4c0.1,0,0.1,0,0.3-0.2c0,0,0.2-0.2,0.2-0.3c0-0.1,0-0.1,0.1-0.2l0,0l0,0l0-0.1
			c0-0.1,0-0.2,0-0.4c0-0.2-0.1-0.6-0.2-0.8c-0.2-0.3-0.4-0.4-0.5-0.5c-0.2-0.1-0.4-0.3-0.6-0.4c-0.2-0.1-0.4-0.2-0.6-0.2
			c0-0.1-0.1,0-0.1-0.1c0,0-0.1,0-0.1,0l0,0v0l0,0c0,0,0,0.1,0,0.1c0,0-0.1-0.1-0.1-0.1c-0.1-0.1-0.1-0.1,0,0c0,0,0,0,0,0l0,0
			c-0.1-0.1-0.1-0.1-0.2-0.4c-0.1-0.2-0.2-0.4-0.4-0.5c-0.1-0.1-0.2-0.1-0.3-0.2l-0.2-0.1l-0.3-0.1c0,0-0.1,0-0.1-0.1
			c0-0.1-0.2-0.5-0.2-0.6c0-0.1-0.1-0.6-0.4-1l-0.1-0.1l0,0c0-0.1,0-0.1,0-0.2c0-0.1,0-0.1,0-0.2l-0.1-0.3c0-0.1-0.1-0.2-0.2-0.4
			c0.1,0,0.1-0.1,0,0c0,0,0,0,0-0.1l0,0l0-0.1c0,0,0-0.1,0-0.1c0,0,0,0,0-0.1c0-0.1,0-0.2,0-0.3c0-0.1,0-0.1,0-0.3
			c0,0,0-0.1-0.1-0.2c0,0-0.2-0.2-0.4-0.3c0,0,0,0,0,0c0,0,0,0,0,0c0,0,0,0,0,0c0,0,0,0,0,0c-0.1,0,0,0,0,0l0,0c-0.1,0-0.1,0-0.2,0
			l-0.1-0.3l0-0.2c0-0.1-0.1-0.2-0.1-0.3c0,0,0-0.1,0-0.1c0-0.3,0-0.7,0-1.1c0.2-0.8,0.4-1.6,0.6-2.5c0.4-1.7,1-3.4,1.5-5.2
			c0.3-1.4,0.7-2.9,1.3-5.2l0.2-0.4c0.2-0.9,0.5-2.3,0.6-3.7c0-1.2-0.1-2.4-0.1-2.8c0-0.5,0-1.4,0-2.4c0-0.3-0.1-0.6,0-0.8
			c0-0.2,0-0.5,0.1-0.7c0.1-0.5,0-1.1,0-1.7c0-0.6,0-1.2,0-1.8c0-0.6,0.1-1.2,0.1-1.8c0.1-1.2,0.2-2.2,0.2-3l-0.1-0.1
			c0-0.2,0-0.5,0-0.5c0-0.2,0.1-0.4,0.2-0.5l0,0l0,0c0,0,0,0,0,0l0,0l0,0l0,0l0-0.1c0.1-0.1,0.1-0.2,0.1-0.3c0-0.1,0.1-0.3,0.1-0.4
			l0-0.2c0,0,0.1,0,0.1,0c0,0,0,0,0,0c0.1,0,0.2-0.1,0.3-0.1l0.4-0.2l0-0.5c0-0.3,0-0.6,0-0.9c-0.1-0.5-0.2-0.8-0.3-1
			c0-0.1,0-0.1,0-0.2c0-0.1,0.1-0.4,0-0.6c0-0.1,0-0.2,0-0.3c0-0.1,0-0.1,0-0.2c0-0.2,0-0.3,0-0.5l-0.1,0.2c0-0.1,0-0.3,0-0.4
			c0-0.3-0.1-0.5-0.1-0.7c0-0.1,0-0.1-0.1-0.2c0,0,0,0,0,0v0l0,0l0,0l0,0l0,0l0,0c0.1-0.2,0.1-0.5,0.1-0.7c0-0.2,0-0.3,0-0.5
			c0-0.1,0-0.2,0-0.2c0,0,0,0,0,0c0,0,0,0,0,0c0,0,0,0,0,0c0,0,0,0,0,0c0,0,0-0.1,0-0.1c0.1-0.2,0-0.2,0-0.3c0-0.3,0-0.5,0-0.7
			l0-0.3c0-0.1,0-0.1,0-0.2c0-0.2,0-0.5,0-0.7c0-0.2,0-0.5-0.1-0.7c-0.1-0.5,0-0.8,0-1.3c0-0.5-0.1-1-0.1-1.5
			c-0.1-0.5-0.1-0.9-0.2-1.4c0.1,0.3,0.2,1.2,0.2,1.9c-0.1-1-0.1-2-0.3-3.1c-0.1-0.5-0.1-1-0.2-1.6c-0.1-0.3-0.1-0.5-0.2-0.8
			c0,0,0,0,0,0l0.1,0c0,0,0,0,0.1,0c0.2,0,0.3,0,0.6-0.2l0.3-0.2l0-0.4c0-0.1,0-0.2-0.1-0.4c0-0.1,0-0.1-0.1-0.2
			c0-0.1-0.1-0.1-0.1-0.2c-0.1-0.1-0.1-0.1-0.1-0.1c-0.1,0-0.1-0.1-0.2-0.1l-0.1,0l-0.1-0.1c-0.1-0.1-0.1-0.2-0.1-0.3l0-0.7
			c0-0.4,0-0.9,0.1-1.3c0-0.9-0.1-1.8-0.1-2.6c0-1,0-1.8,0-2.5c0,0.1,0,0.2,0,0.3c0-0.1,0-0.3,0-0.4c0-0.5,0-0.9,0-1.4
			c0,0.4,0,0.9,0,1.2c-0.1-0.8-0.2-1.9-0.3-3.2c0-0.2,0-0.4,0.1-0.5c0,0,0,0,0-0.1c0-1.2-0.1-1-0.1-0.3c0-0.6,0-1.2-0.1-1.6
			c0.2-1.1-0.4-3.1-0.3-4.5c0-0.2-0.1-0.5-0.2-1c0-0.1,0-0.2-0.1-0.3l0,0c0,0,0,0,0,0l0-0.1l0-0.2c0-0.3,0-0.6,0-0.9
			c0-0.2,0-0.2,0-0.2c0,0,0,0,0,0c0.1-0.1,0.1-0.2,0.2-0.3c0.1-0.3,0.2-0.6,0.2-0.9c0-0.1,0-0.3,0-0.5c0-0.2-0.1-0.3-0.1-0.5
			c-0.1-0.3-0.2-0.4-0.2-0.5c0-0.3,0-0.5,0-0.7c0-0.3,0.1-0.6,0.1-1c0-0.4,0-0.7-0.1-1c-0.1-0.6,0-1.2,0-1.8
			c0.1-0.2,0.1-0.3,0.2-0.5c0-0.2,0.1-0.4,0.1-0.7c0.1-0.3,0.1-0.5,0.1-0.7L50,46c0.4-1.7,0.5-2.5,0.4-0.7c0.1-0.9,0.1-1.6,0.2-2.1
			c0-0.5,0.1-0.8,0.2-1c0.5-0.7,1.1-0.9,3-1.7l-0.1,0.2c1.2-0.4,3.1-1.3,3.8-1.7c0.8-0.4,2.1-1.4,3.6-2.7c0.8-0.7,1.6-1.4,2.5-2.2
			c0.2-0.2,0.4-0.4,0.7-0.6c0.2-0.2,0.5-0.4,0.7-0.5c0.2-0.2,0.5-0.4,0.7-0.6c0.3-0.2,0.6-0.5,0.7-1c0-0.5,0.1-1,0.1-1.4
			c0-0.2,0-0.4,0-0.6c0-0.1,0-0.1,0-0.2C66.5,29,66.5,29,66.4,28.8z M45,29.3L45,29.3C45,29.2,45,29.3,45,29.3L45,29.3z M44.5,29.2
			c0,0.1,0,0.1,0,0.2C44.4,29.4,44.4,29.3,44.5,29.2z M31.9,30.3L31.9,30.3L31.9,30.3L31.9,30.3L31.9,30.3z M15.6,81.7
			C15.6,81.7,15.6,81.7,15.6,81.7L15.6,81.7L15.6,81.7z M15.8,81.9L15.8,81.9C15.9,82,15.9,82,15.8,81.9z M29.2,142.6l-0.1,0.1
			C29.3,142.5,29.2,142.6,29.2,142.6z M28.8,141.9L28.8,141.9L28.8,141.9L28.8,141.9L28.8,141.9L28.8,141.9z M28.5,141.8L28.5,141.8
			L28.5,141.8L28.5,141.8z M25.5,95.9C25.6,96,25.6,96,25.5,95.9c0.1,0.2,0.1,0.4,0.1,0.4S25.7,96.2,25.5,95.9
			C25.6,96,25.6,96,25.5,95.9C25.5,95.9,25.5,95.9,25.5,95.9C25.5,95.9,25.5,95.9,25.5,95.9z M26.7,78.6L26.7,78.6L26.7,78.6
			C26.7,78.7,26.7,78.6,26.7,78.6z M27,78.9C26.9,78.8,26.9,78.8,27,78.9C27,78.9,27,78.9,27,78.9z M29.1,62.5
			C29.1,62.5,29.1,62.5,29.1,62.5C29.1,62.5,29.1,62.4,29.1,62.5l0.1-0.2c0,0,0,0,0,0l0,0C29.2,62.4,29.1,62.4,29.1,62.5L29.1,62.5
			C29.1,62.6,29.1,62.6,29.1,62.5C29.1,62.6,29.1,62.6,29.1,62.5L29.1,62.5z M27.2,53.2c0,0.1,0,0.1,0.1,0.2l0,0
			C27.2,53.3,27.2,53.3,27.2,53.2l-0.1-0.3L27.2,53.2z M22,70.7l-0.2,0.6C22.2,70,22.1,70.4,22,70.7z M21,78.8
			C21,78.8,21,78.8,21,78.8L21,78.8L21,78.8C20.9,78.8,21,78.8,21,78.8z M20.2,76.2c0-0.1,0-0.2,0-0.1c0,0.1,0,0.2,0.1,0.4
			c0,0.1,0,0.2,0.1,0.2l-0.1,0l0.1,0.1c0,0,0,0,0,0c0,0,0,0,0,0l0.1,0.1c0,0,0,0,0-0.1c0,0,0,0,0,0l0.3,0.1l0,0.4c0,0.1,0,0.2,0,0.3
			l0,0.1l-0.1,0.2c0,0,0,0,0,0.1l0,0l0,0.1c0,0,0,0,0,0l0-0.2l0,0c0,0,0-0.1,0-0.1c0,0,0,0,0,0l0.1-0.1l0-0.1c0-0.1,0-0.2,0-0.2
			c0,0,0-0.1,0-0.1l0-0.2l-0.2-0.1c-0.1,0-0.1,0-0.1-0.1c-0.1-0.1-0.1-0.2-0.1-0.4C20.2,76.3,20.2,76.2,20.2,76.2z M20.2,77.6
			L20.2,77.6L20.2,77.6L20.2,77.6z M20,77.4C20,77.4,20,77.4,20,77.4l0-0.1l0.1,0.2c0,0,0,0,0,0c0,0,0,0,0,0l0,0c0,0,0,0,0,0.1l0,0
			c0,0,0,0,0,0c0,0,0,0,0,0l0,0l0,0l0,0l0.1,0.1c0,0,0,0,0,0c0,0,0,0,0,0l0.1,0.1c0,0-0.1,0-0.1,0l0,0c0,0,0,0,0,0l0,0
			c0,0-0.1,0-0.1,0l0,0l0,0c0,0,0,0,0,0l0,0l0-0.1v0l0,0l0,0L20,77.4L20,77.4L20,77.4L20,77.4z M20,77.5L20,77.5L20,77.5L20,77.5
			L20,77.5z M19.5,76.5c0-0.2-0.1-0.6,0-0.9c0.1-0.5,0.2-1,0.4-1.5c-0.1,0.5-0.2,0.9-0.3,1.4c0,0.1-0.1,0.3,0,0.4
			C19.5,76.2,19.5,76.3,19.5,76.5c0.1,0.1,0.1,0.2,0.1,0.4c0,0.2,0.1,0.3,0.2,0.4l0,0c0,0,0,0,0,0l0,0c0,0,0,0,0,0l0,0l0,0.1
			c0,0,0,0,0,0l0,0l0,0c0,0,0,0,0,0l0,0l0,0.1l0,0c0,0,0,0,0,0l0,0l-0.1,0l0,0c0,0,0,0,0,0l0,0c0,0,0,0,0-0.1c0,0,0,0,0-0.1l0,0
			c0,0,0,0,0,0l0,0l0,0c0,0,0,0,0,0l0,0l-0.1-0.1l0,0C19.6,77.1,19.5,76.7,19.5,76.5z M21.4,82.2c0-0.3,0-0.6,0-1
			c0-0.1,0-0.2-0.1-0.3c-0.1-0.2-0.2-0.3-0.3-0.5L21,80.2l0-0.1l0,0c0,0,0,0,0,0c0,0,0,0,0,0l0,0c0,0,0,0,0,0l0,0l0,0l0,0
			c0,0,0,0,0,0l0,0c0,0,0,0,0.1,0c0,0-0.1,0-0.1,0l-0.1-0.2c-0.1-0.2-0.2-0.4-0.3-0.5c-0.1-0.1-0.1-0.2-0.2-0.3c0,0,0-0.1,0-0.1
			c0,0,0.1,0,0.2-0.1c0,0,0,0,0,0l-0.2,0.1c0,0,0,0,0,0l0,0l0,0c0.1,0,0.2,0,0.2,0c0,0-0.1,0-0.2,0l0,0c-0.1-0.1-0.2-0.2-0.4-0.5
			c-0.1-0.1-0.1-0.3-0.1-0.4l-0.1-0.2l0.1-0.1l0.1,0l-0.1,0.1l0.1,0.1c0.1,0.1,0.1,0.3,0.2,0.4l0,0l0,0l-0.1-0.4l0-0.1l0-0.1l0.1,0
			l0,0l0,0.1c0,0.1,0.1,0.2,0.1,0.4c0.2,0.2,0.4,0.4,0.5,0.6l0,0l0,0c0,0,0,0,0,0c0,0,0,0,0,0l0,0c0,0,0,0,0,0v0c0,0,0,0,0,0
			c0,0,0,0,0,0c0,0,0,0.1,0.1,0.2c0.2,0.3,0.3,0.6,0.5,0.9c0,0,0,0.1,0.1,0.1c0,0,0,0,0,0c0,0,0,0,0,0l0,0c0.1,0,0.1,0,0,0
			c0.1,0.3,0.3,0.6,0.4,0.8c0.1,0.3,0,0.7,0,1.2c0-0.1,0-0.6-0.1-0.9c0-0.1,0-0.2-0.1-0.3c0,0,0-0.1-0.1-0.1l-0.1-0.2
			c-0.1-0.2-0.2-0.4-0.3-0.5c0,0,0,0,0,0c0,0,0,0.1,0.1,0.2l0.1,0.3c0.1,0.2,0.2,0.3,0.2,0.5c0,0.1,0,0.1,0,0.2l0,0.3l0,0.6
			c0,0.2,0.1,0.4,0.1,0.6c0,0.2,0.1,0.3,0.1,0.4C21.7,83.1,21.6,83,21.4,82.2z M20.7,87.5C20.7,87.5,20.7,87.5,20.7,87.5
			C20.6,87.5,20.6,87.5,20.7,87.5L20.7,87.5z M20.1,81.9L20.1,81.9L20.1,81.9L20.1,81.9L20.1,81.9z M20.3,87.2L20.3,87.2L20.3,87.2
			L20.3,87.2L20.3,87.2L20.3,87.2z M19.9,86.8L19.9,86.8L19.9,86.8L19.9,86.8C19.9,86.7,19.9,86.8,19.9,86.8
			C19.9,86.8,19.9,86.8,19.9,86.8C19.9,86.8,19.9,86.8,19.9,86.8L19.9,86.8z M19.7,87.5L19.7,87.5L19.7,87.5
			C19.7,87.5,19.7,87.5,19.7,87.5z M17.8,85.7L17.8,85.7L17.8,85.7L17.8,85.7L17.8,85.7C17.8,85.7,17.8,85.7,17.8,85.7L17.8,85.7
			L17.8,85.7C17.8,85.7,17.8,85.7,17.8,85.7C17.8,85.7,17.8,85.7,17.8,85.7L17.8,85.7C17.8,85.7,17.8,85.7,17.8,85.7
			C17.8,85.7,17.8,85.7,17.8,85.7C17.8,85.7,17.8,85.7,17.8,85.7L17.8,85.7L17.8,85.7C17.8,85.7,17.8,85.7,17.8,85.7
			C17.8,85.7,17.8,85.7,17.8,85.7C17.8,85.7,17.8,85.7,17.8,85.7L17.8,85.7C17.8,85.7,17.8,85.7,17.8,85.7
			C17.8,85.7,17.8,85.7,17.8,85.7C17.8,85.7,17.8,85.7,17.8,85.7C17.8,85.7,17.8,85.7,17.8,85.7L17.8,85.7L17.8,85.7L17.8,85.7
			C17.8,85.7,17.8,85.7,17.8,85.7L17.8,85.7z M17.8,85.7L17.8,85.7C17.8,85.7,17.8,85.7,17.8,85.7L17.8,85.7z M33.4,33.1
			C33.4,33.1,33.4,33.1,33.4,33.1L33.4,33.1L33.4,33.1z M33.2,30.1L33.2,30.1L33.2,30.1C33.2,30.1,33.2,30.1,33.2,30.1z M43.3,36.2
			C43.3,36.2,43.3,36.2,43.3,36.2C43.3,36.2,43.3,36.2,43.3,36.2L43.3,36.2z M43.8,36.1L43.8,36.1L43.8,36.1
			C43.8,36.1,43.8,36.1,43.8,36.1z M43.8,36.1L43.8,36.1L43.8,36.1C43.8,36.1,43.8,36.1,43.8,36.1z M43.8,36.1L43.8,36.1
			C43.8,36.1,43.8,36.1,43.8,36.1L43.8,36.1C43.8,36.1,43.8,36.1,43.8,36.1L43.8,36.1L43.8,36.1C43.8,36.1,43.8,36.1,43.8,36.1
			L43.8,36.1L43.8,36.1L43.8,36.1C43.8,36.1,43.8,36.1,43.8,36.1L43.8,36.1L43.8,36.1L43.8,36.1C43.8,36.1,43.8,36.1,43.8,36.1
			L43.8,36.1L43.8,36.1L43.8,36.1C43.8,36.1,43.8,36.1,43.8,36.1L43.8,36.1L43.8,36.1C43.7,36.1,43.7,36.1,43.8,36.1
			C43.7,36.1,43.8,36.1,43.8,36.1L43.8,36.1L43.8,36.1L43.8,36.1L43.8,36.1L43.8,36.1L43.8,36.1L43.8,36.1L43.8,36.1
			C43.8,36.1,43.8,36.1,43.8,36.1L43.8,36.1z M48.8,34.6c0.7-0.3,1.4-0.3,2.5-0.4C50.6,34.3,49.2,34.5,48.8,34.6z M59.7,15.4
			l0.2,0.2c-0.1-0.5,0-0.2,0.1,0l-0.1,0l0.1,0.1c0,0,0,0,0,0.1l-0.1-0.1c0,0,0,0,0,0l0,0L59.7,15.4C59.6,15.4,59.7,15.4,59.7,15.4z
			 M59.2,14.5L59.2,14.5L59.2,14.5C59.2,14.5,59.2,14.5,59.2,14.5C59.2,14.5,59.2,14.5,59.2,14.5z M59.2,14.5
			C59.2,14.5,59.2,14.5,59.2,14.5C59.1,14.5,59.1,14.5,59.2,14.5z M56.9,0.5C56.8,0.4,56.8,0.4,56.9,0.5L56.9,0.5L56.9,0.5L56.9,0.5
			z M57.7,3.5C57.7,3.5,57.7,3.5,57.7,3.5L57.7,3.5L57.7,3.5L57.7,3.5z M58.7,5C58.7,5,58.7,5,58.7,5L58.7,5L58.7,5z M61.8,6.1
			L61.8,6.1L61.8,6.1L61.8,6.1L61.8,6.1z M63,7.6c-0.1-0.2-0.1-0.4-0.2-0.5c-0.1-0.2-0.1-0.3-0.2-0.4c-0.2-0.1-0.3-0.2-0.4-0.3
			c0.1,0,0.2,0.1,0.4,0.2c0.1,0.1,0.2,0.2,0.3,0.3c0.1,0.1,0.1,0.3,0.2,0.5c0.1,0.3,0.2,0.4,0.2,0.5C63.1,7.8,63.1,7.7,63,7.6z
			 M63.3,8.7L63.3,8.7C63.3,8.7,63.3,8.7,63.3,8.7C63.7,8.6,63.2,8.7,63.3,8.7L63.3,8.7L63.3,8.7z M63.4,15L63.4,15
			C63.4,15,63.3,15,63.4,15C63.3,15,63.4,15,63.4,15z M63.3,14.9C63.3,14.9,63.3,14.9,63.3,14.9L63.3,14.9L63.3,14.9z M63.2,14.8
			L63.2,14.8L63.2,14.8C63.2,14.9,63.2,14.9,63.2,14.8C63.2,14.9,63.2,14.9,63.2,14.8z M63.2,14.9L63.2,14.9l0,0.2
			C63.2,15,63.2,14.9,63.2,14.9C63.2,14.9,63.2,14.9,63.2,14.9z M63,15L63,15L63,15L63,15l0.1,0C63.1,15.1,63.1,15,63,15L63,15
			c0.1-0.1,0.1-0.1,0.1-0.1c0,0.1,0,0.2,0,0.1l0.1,0.1l0,0L63,15C63,15,63,15,63,15z M63,15.3c0,0,0.1,0,0.2,0L63,15.3L63,15.3z
			 M64.3,21c-0.1-0.6-0.3-1.4-0.5-2.4c-0.1-0.5-0.3-1-0.5-1.5c-0.1-0.3-0.2-0.5-0.2-0.8l0-0.2l0.2-0.1c0.2,0.7,0.4,1.3,0.7,2.1
			c0.3,1,0.5,2,0.9,3.2C64.3,19.9,64.5,21,64.3,21z M49.1,58.1L49.1,58.1C49.2,58.1,48.8,58,49.1,58.1L49.1,58.1z M50.6,78.2
			L50.6,78.2C50.6,78.2,50.6,78.2,50.6,78.2L50.6,78.2C50.6,78.2,50.6,78.2,50.6,78.2C50.6,78.2,50.6,78.2,50.6,78.2z M50.4,78.1
			C50.4,78.1,50.4,78.1,50.4,78.1C50.4,78.1,50.4,78.1,50.4,78.1l0.1-0.1l0,0l0,0c0.1,0.1,0.1,0.2,0.1,0.2c0,0,0,0,0,0
			c0,0-0.1,0-0.1,0l-0.1,0.1c-0.1,0-0.1,0-0.1,0c0,0,0,0,0,0L50.4,78.1z M50.3,78.5L50.3,78.5L50.3,78.5
			C50.2,78.5,50.2,78.5,50.3,78.5z M49.5,78.8L49.5,78.8L49.5,78.8C49.5,78.8,49.5,78.8,49.5,78.8C49.5,78.8,49.5,78.8,49.5,78.8
			L49.5,78.8L49.5,78.8C49.5,78.8,49.5,78.8,49.5,78.8L49.5,78.8L49.5,78.8L49.5,78.8C49.5,78.8,49.5,78.8,49.5,78.8L49.5,78.8
			L49.5,78.8L49.5,78.8C49.6,78.7,49.5,78.7,49.5,78.8z M49.6,78.7L49.6,78.7C49.5,78.7,49.6,78.7,49.6,78.7
			C49.6,78.7,49.6,78.7,49.6,78.7z M45.7,134.1C45.7,134.1,45.7,134.1,45.7,134.1L45.7,134.1C45.7,134.1,45.7,134.1,45.7,134.1z
			 M45.7,134C45.7,134.1,45.7,134.1,45.7,134C45.7,134.1,45.7,134.1,45.7,134C45.7,134,45.7,134,45.7,134z M40.4,135.2
			C40.4,135.2,40.4,135.2,40.4,135.2C40.4,135.2,40.4,135.2,40.4,135.2C40.4,135.2,40.4,135.2,40.4,135.2z M40.4,136.5L40.4,136.5
			L40.4,136.5L40.4,136.5C40.4,136.5,40.4,136.5,40.4,136.5L40.4,136.5z M39.3,139.2c0.1-0.3,0.3-0.6,0.4-0.9
			c0.1-0.1,0.2-0.3,0.2-0.4c0-0.2,0.1-0.3,0.1-0.5l0.3-0.5c0,0-0.2,0.5-0.3,1c-0.1,0.4-0.5,1-0.6,1.5c0,0,0,0.1,0,0.1c0,0,0,0,0,0
			c0,0-0.1,0-0.1,0C39.3,139.3,39.3,139.2,39.3,139.2z M38.4,140.7L38.4,140.7L38.4,140.7C38.4,140.7,38.4,140.7,38.4,140.7
			C38.4,140.7,38.4,140.7,38.4,140.7C38.4,140.7,38.4,140.7,38.4,140.7z M38.3,140.8C38.3,140.8,38.3,140.8,38.3,140.8
			C38.3,140.8,38.3,140.8,38.3,140.8c0,0,0,0.1,0,0.1c0,0,0,0,0,0c0,0,0,0-0.1,0C38.2,140.9,38.3,140.9,38.3,140.8z M46.5,142.8
			l-0.4,0.5c0,0-0.1,0-0.1,0L46.5,142.8C46.5,142.7,46.5,142.8,46.5,142.8z M49.4,142.5C49.4,142.5,49.5,142.5,49.4,142.5
			C51,142.2,50.5,142.3,49.4,142.5z M49.8,139.4c0.2,0.1,0.4,0.2,0.7,0.3c0.1,0.1,0.2,0.1,0.4,0.2c0.2,0.1,0.3,0.2,0.4,0.4
			c0.1,0.2,0.2,0.5,0.2,0.7c0,0.1,0,0.2,0,0.3l0,0.1l0,0l0,0c0,0,0,0.1,0,0.1c0,0.1-0.1,0.2-0.1,0.2c-0.1,0.1-0.2,0.1-0.3,0.1
			c-0.5,0.2-0.9,0.3-1.4,0.4c-2.1,0.4-0.2-0.2-0.6-0.2c0.6-0.2,1.2-0.3,1.7-0.4c0.1,0,0.2-0.1,0.4-0.1c0,0,0.1,0,0.1-0.1
			c0,0,0-0.1,0-0.1l0-0.2c0-0.2,0-0.5-0.1-0.7c-0.3-0.4-0.8-0.6-1.2-0.8c-0.1,0-0.2-0.1-0.3-0.1c0,0,0,0,0-0.1c0-0.1,0-0.1,0-0.2
			C49.6,139.3,49.7,139.3,49.8,139.4z M50.4,98.1L50.4,98.1L50.4,98.1C50.4,98,50.4,98.1,50.4,98.1C50.5,98.1,50.5,98.1,50.4,98.1z
			 M51,90L51,90L51,90L51,90C51,89.9,51,89.9,51,90z M50.7,91.6C50.7,91.6,50.7,91.6,50.7,91.6C50.7,91.6,50.7,91.6,50.7,91.6z
			 M50.6,89.7L50.6,89.7L50.6,89.7L50.6,89.7C50.6,89.8,50.6,89.7,50.6,89.7C50.6,89.7,50.6,89.7,50.6,89.7z M50.1,78.8L50.1,78.8
			L50.1,78.8L50.1,78.8z M49.9,78.2L49.9,78.2C49.9,78.2,50,78.2,49.9,78.2c0.1,0.1,0.1,0.1,0.2,0.2l0,0l0,0L49.9,78.2
			C49.9,78.2,49.9,78.2,49.9,78.2z M50.1,78.8L50.1,78.8L50.1,78.8C50.1,78.8,50.1,78.8,50.1,78.8z M50.1,78.8L50.1,78.8
			C50.1,78.8,50.1,78.8,50.1,78.8L50.1,78.8z M50,78.8L50,78.8L50,78.8L50,78.8C50,78.8,50,78.8,50,78.8z M49.7,78.7
			C49.7,78.7,49.7,78.7,49.7,78.7L49.7,78.7L49.7,78.7z M49.7,78.3C49.7,78.3,49.7,78.3,49.7,78.3C49.7,78.3,49.7,78.3,49.7,78.3
			C49.7,78.3,49.7,78.3,49.7,78.3z M49.7,78.6L49.7,78.6C49.7,78.6,49.7,78.6,49.7,78.6C49.7,78.6,49.7,78.6,49.7,78.6z M49.8,79.1
			C49.7,79.1,49.7,79.1,49.8,79.1c-0.1-0.1-0.1-0.3-0.1-0.4c0,0,0,0,0,0l0,0l0,0c0,0,0,0,0,0c0,0,0,0-0.1,0c0,0,0,0,0,0l0,0
			c0,0,0,0,0,0c0,0,0,0,0,0h0l0,0c0,0,0,0,0,0c0,0,0,0,0,0l0,0c0,0,0,0,0,0l0,0l0,0c0,0,0,0,0,0c0,0,0,0,0,0l0,0c0,0,0,0,0,0
			c0.1,0,0.1,0,0.2,0.1c0,0,0,0,0,0l0,0.2l0,0.1c0,0-0.1,0-0.1,0C49.8,79.1,49.8,79.1,49.8,79.1z M50.5,82.1
			c-0.1-0.4-0.2-0.9-0.3-1.5c0-0.4-0.2-0.8-0.3-1.2c0,0,0.1,0,0.1,0c0,0,0.1,0,0.1,0l0.1,0.4c0.1,0.3,0.1,0.6,0.1,0.8L50.5,82.1z
			 M50.5,79.1C50.5,79.1,50.5,79.1,50.5,79.1C50.6,79.2,50.6,79.2,50.5,79.1z M49.4,53.2c0-0.1,0-0.2,0-0.2
			C49.4,53,49.4,52.6,49.4,53.2z M45.5,29l0.1,0.1l0,0.2c0,0.2,0,0.3,0,0.2c0-0.1,0-0.2,0-0.2l0-0.2L45.5,29
			c-0.2-0.3-0.3-0.3-0.5-0.4c-0.1,0-0.2,0-0.3,0c-0.1,0-0.1,0-0.1,0c0,0-0.1,0.1-0.1,0.1c0.1,0,0.1-0.1,0.2-0.1
			C45,28.6,45.3,28.6,45.5,29z"/>
		<g>
			<path class="st0" d="M3,82.4h4.1l-0.6,1.9H4.7L4,86.5h1.9l-0.5,1.8H3.4l-0.7,2.4h2l-0.7,2H0L3,82.4z"/>
			<path class="st0" d="M8.4,82.4h1.8l0.1,4l1.2-4h2.1l-3,10.3H8.8l-0.2-4.1l-1.2,4.1h-2L8.4,82.4z"/>
			<path class="st0" d="M19.7,82.4l-0.6,1.9h-1.5l-2.5,8.5h-2.1l2.5-8.5h-1.5l0.6-1.9H19.7z"/>
			<path class="st0" d="M20.9,82.4H25l-0.6,1.9h-1.9l-0.7,2.3h1.9l-0.5,1.8h-1.9l-0.7,2.4h2l-0.7,2h-4L20.9,82.4z"/>
			<path class="st0" d="M25.4,92.7h-2.1l3-10.3h3.9c0.5,0,0.8,0.1,0.9,0.4c0.2,0.3,0.2,0.6,0.1,0.9l-1,3.5c0,0.2-0.1,0.3-0.3,0.4
				c-0.1,0.1-0.4,0.2-0.6,0.2c0.2,0,0.3,0.1,0.4,0.3c0.1,0.2,0.1,0.5,0,0.8l-1.1,3.8h-2.1l1.2-4.1c0-0.1,0-0.2,0-0.2
				c0-0.1-0.1-0.1-0.2-0.1h-0.7L25.4,92.7z M27.8,86.8c0.1,0,0.2,0,0.3-0.1c0.1-0.1,0.2-0.2,0.2-0.3l0.6-1.9c0.1-0.3,0-0.4-0.3-0.4
				h-0.7l-0.8,2.7H27.8z"/>
			<path class="st0" d="M37.8,82.4l-0.6,1.9h-1.5l-2.5,8.5h-2.1l2.5-8.5h-1.5l0.6-1.9H37.8z"/>
			<path class="st0" d="M34.9,92.7l4.5-10.3h3.1l-1.4,10.3H39l0.3-1.9h-1.4l-0.7,1.9H34.9z M40.4,84.6l-1.9,4.7h1.1L40.4,84.6z"/>
			<path class="st0" d="M44.4,92.7h-2.2l3-10.3h2.2L44.4,92.7z"/>
			<path class="st0" d="M48.7,82.4h1.8l0.1,4l1.2-4h2.1l-3,10.3h-1.7L49,88.6l-1.2,4.1h-2L48.7,82.4z"/>
			<path class="st0" d="M56,87l-1.7,5.7h-2.1l3-10.3h2.1l0.4,3.6l2.4-3.6h2.2l-3.1,10.3h-2.1l1.7-5.7l-2.4,3.2L56,87z"/>
			<path class="st0" d="M63.6,82.4h4.1l-0.6,1.9h-1.9l-0.7,2.3h1.9l-0.5,1.8H64l-0.7,2.4h2l-0.7,2h-4L63.6,82.4z"/>
			<path class="st0" d="M69,82.4h1.8l0.1,4l1.2-4h2.1l-3,10.3h-1.7l-0.2-4.1l-1.2,4.1h-2L69,82.4z"/>
			<path class="st0" d="M80.3,82.4l-0.6,1.9h-1.5l-2.5,8.5h-2.1l2.5-8.5h-1.5l0.6-1.9H80.3z"/>
		</g>
		<g>
			<g>
				<path class="st0" d="M1.5,64.5h3.3v6.6l6.2-6.6h4.3l-6.6,6.6l6.9,9.4h-4.3l-4.9-7l-1.6,1.6v5.3H1.5V64.5z"/>
				<path class="st0" d="M21.7,64.5h3.8l5.6,16h-3.6l-1.1-3.3h-5.9l-1.1,3.3H16L21.7,64.5z M21.4,74.5h4.1l-2-6.3L21.4,74.5z"/>
				<path class="st0" d="M42.9,64.9c0.6,0.3,1.1,0.6,1.5,1.1c0.3,0.4,0.6,0.9,0.8,1.3c0.2,0.5,0.3,1.1,0.3,1.7
					c0,0.8-0.2,1.5-0.6,2.2c-0.4,0.7-1,1.3-1.9,1.6c0.7,0.3,1.3,0.7,1.6,1.3c0.3,0.5,0.5,1.4,0.5,2.5v1.1c0,0.7,0,1.2,0.1,1.5
					c0.1,0.4,0.3,0.7,0.6,0.9v0.4h-3.7c-0.1-0.4-0.2-0.6-0.2-0.9c-0.1-0.4-0.1-0.9-0.1-1.4l0-1.5c0-1-0.2-1.7-0.5-2
					c-0.3-0.3-1-0.5-1.9-0.5H36v6.3h-3.3v-16h7.6C41.5,64.6,42.3,64.7,42.9,64.9z M36,67.3v4.3h3.6c0.7,0,1.2-0.1,1.6-0.3
					c0.6-0.3,0.9-0.9,0.9-1.8c0-1-0.3-1.6-0.9-1.9c-0.3-0.2-0.9-0.3-1.5-0.3H36z"/>
				<path class="st0" d="M58.9,64.5h4.8v16h-3.1V69.7c0-0.3,0-0.7,0-1.3c0-0.6,0-1,0-1.3l-3,13.4h-3.2l-3-13.4c0,0.3,0,0.7,0,1.3
					c0,0.6,0,1,0,1.3v10.8h-3.1v-16h4.9L56,77.1L58.9,64.5z"/>
				<path class="st0" d="M70.9,64.5h3.8l5.6,16h-3.6l-1.1-3.3h-5.9l-1.1,3.3h-3.5L70.9,64.5z M70.7,74.5h4.1l-2-6.3L70.7,74.5z"/>
			</g>
			<g>
				<path class="st0" d="M78.4,66c-0.2,0.2-0.4,0.3-0.7,0.3c-0.3,0-0.5-0.1-0.7-0.3c-0.2-0.2-0.3-0.4-0.3-0.7c0-0.3,0.1-0.5,0.3-0.7
					c0.2-0.2,0.4-0.3,0.7-0.3c0.3,0,0.5,0.1,0.7,0.3c0.2,0.2,0.3,0.4,0.3,0.7C78.7,65.6,78.6,65.8,78.4,66z M77.2,64.7
					c-0.2,0.2-0.2,0.4-0.2,0.6c0,0.2,0.1,0.4,0.2,0.6c0.2,0.2,0.4,0.2,0.6,0.2c0.2,0,0.4-0.1,0.6-0.2c0.2-0.2,0.2-0.4,0.2-0.6
					c0-0.2-0.1-0.4-0.2-0.6c-0.2-0.2-0.4-0.2-0.6-0.2C77.5,64.5,77.3,64.6,77.2,64.7z M77.3,65.9v-1.1c0.1,0,0.2,0,0.3,0
					c0.1,0,0.2,0,0.2,0c0.1,0,0.2,0,0.2,0.1c0.1,0.1,0.1,0.1,0.1,0.3c0,0.1,0,0.2-0.1,0.2c-0.1,0-0.1,0.1-0.2,0.1
					c0.1,0,0.1,0,0.2,0.1c0.1,0.1,0.1,0.1,0.1,0.2v0.1c0,0,0,0,0,0c0,0,0,0,0,0l0,0h-0.3c0,0,0-0.1,0-0.2c0-0.1,0-0.1,0-0.1
					c0,0,0-0.1-0.1-0.1c0,0-0.1,0-0.1,0l-0.1,0h-0.1v0.4H77.3z M77.8,65c0,0-0.1,0-0.2,0h-0.1v0.3h0.1c0.1,0,0.1,0,0.2,0
					c0,0,0.1-0.1,0.1-0.1C77.9,65,77.9,65,77.8,65z"/>
			</g>
		</g>
	</g>
</g>
</svg>
