<?xml version="1.0" encoding="utf-8"?>
<!-- Generator: Adobe Illustrator 24.3.0, SVG Export Plug-In . SVG Version: 6.00 Build 0)  -->
<svg version="1.1" id="Livello_1" xmlns="http://www.w3.org/2000/svg" xmlns:xlink="http://www.w3.org/1999/xlink" x="0px" y="0px"
	 viewBox="0 0 645.9 194.8" style="enable-background:new 0 0 645.9 194.8;" xml:space="preserve">
<path d="M559.1,104.3h48.2l8.6,26.9h29.6L599.3,0.4h-30.9l-46.7,130.8h28.6L559.1,104.3z M583.5,30.3L600,81.8h-33.5L583.5,30.3z
	 M636.3,144v49.6h9.6V144H636.3z M629.3,163.1c-1.7-2.5-3.8-4.3-6.3-5.4c-2.6-1.1-5.4-1.7-8.6-1.7c-5.4,0-9.7,1.7-13.1,5.1
	c-3.4,3.4-5.1,8.3-5.1,14.6c0,6.8,1.9,11.7,5.6,14.7s8,4.5,12.9,4.5c5.9,0,10.5-1.8,13.8-5.3c2.1-2.2,3.3-4.5,3.6-6.6h-9.8
	c-0.6,1.1-1.2,1.9-2,2.5c-1.4,1.1-3.1,1.7-5.3,1.7c-2.1,0-3.8-0.5-5.3-1.4c-2.4-1.5-3.7-4.1-3.8-7.7h26.7c0-3.2-0.1-5.6-0.3-7.3
	C631.8,167.8,630.8,165.3,629.3,163.1z M606.1,171.6c0.3-2.4,1.2-4.3,2.6-5.7c1.4-1.4,3.3-2.1,5.7-2.1c2.3,0,4.2,0.7,5.7,2
	s2.4,3.2,2.6,5.8H606.1z M625.8,14c1.9,0,3.5-0.7,4.9-2c1.4-1.4,2.1-3,2.1-5c0-1.9-0.7-3.6-2-4.9c-1.4-1.4-3-2-4.9-2
	c-1.8,0-3.4,0.6-4.8,1.9c-1.5,1.4-2.2,3.1-2.2,5.1s0.7,3.6,2,5C622.2,13.3,623.8,14,625.8,14z M621.7,2.9c1.1-1.2,2.5-1.7,4.1-1.7
	s2.9,0.6,4.1,1.7c1.1,1.1,1.7,2.5,1.7,4.1s-0.6,3-1.7,4.1c-1.1,1.1-2.5,1.7-4.1,1.7s-3-0.6-4.1-1.7C620.6,10,620,8.6,620,7
	S620.6,4.1,621.7,2.9z M551.9,191.1c-0.3-0.4-0.5-1.3-0.6-2.6c0-1.7-0.1-3.1-0.1-4.2v-16.8c0-4.4-1.6-7.4-4.7-9
	c-3.1-1.6-6.7-2.4-10.7-2.4c-6.2,0-10.6,1.6-13.1,4.8c-1.6,2.1-2.5,4.7-2.7,7.9h9.2c0.2-1.4,0.7-2.5,1.4-3.4c1-1.1,2.6-1.7,4.9-1.7
	c2,0,3.6,0.3,4.7,0.9c1.1,0.6,1.6,1.6,1.6,3.1c0,1.2-0.7,2.1-2.1,2.7c-0.8,0.3-2,0.6-3.8,0.8l-3.3,0.4c-3.7,0.5-6.6,1.3-8.5,2.4
	c-3.5,2-5.3,5.3-5.3,9.8c0,3.5,1.1,6.2,3.3,8.1c2.2,1.9,4.9,2.8,8.3,2.8c2.6,0,5-0.6,7-1.8c1.7-1,3.3-2.2,4.6-3.7
	c0.1,0.8,0.2,1.6,0.3,2.2c0.1,0.7,0.3,1.3,0.6,2.1h10.4v-1.4C552.7,191.9,552.2,191.5,551.9,191.1z M541.7,179.3
	c-0.1,3.2-1,5.4-2.7,6.6c-1.8,1.2-3.7,1.8-5.8,1.8c-1.3,0-2.4-0.4-3.4-1.1c-0.9-0.7-1.4-1.9-1.4-3.5c0-1.8,0.8-3.2,2.3-4.1
	c0.9-0.5,2.4-1,4.4-1.3l2.2-0.4c1.1-0.2,1.9-0.4,2.6-0.7c0.6-0.2,1.2-0.5,1.9-0.9L541.7,179.3L541.7,179.3z M624.8,8.1h0.4h0.4
	c0.3,0,0.5,0.1,0.7,0.1c0.3,0.1,0.5,0.3,0.6,0.6c0.1,0.2,0.1,0.5,0.1,1s0.1,0.8,0.1,1.1h1.9l-0.1-0.2c0-0.1,0-0.2-0.1-0.2
	s0-0.2,0-0.2V9.5c0-0.8-0.2-1.4-0.7-1.7c-0.2-0.2-0.6-0.3-1.1-0.4c0.5-0.1,1-0.2,1.3-0.5c0.4-0.3,0.5-0.8,0.5-1.4
	c0-0.9-0.3-1.5-1-1.9c-0.4-0.2-0.9-0.4-1.5-0.4c-0.1,0-0.6,0-1.6,0s-1.7,0-2.2,0V11h2V8.1H624.8z M624.8,4.5h0.5
	c0.5,0,0.9,0.1,1.2,0.2c0.4,0.2,0.6,0.5,0.6,0.9s-0.1,0.7-0.4,0.9c-0.3,0.2-0.6,0.3-1.1,0.3h-0.8V4.5z M578.2,156.1
	c-2.7,0-4.9,0.6-6.6,1.7c-1.5,0.9-2.8,2.2-4,3.9v-17.6H558v49.5h9.5V189c1.3,1.8,2.5,3,3.6,3.8c1.8,1.2,4.3,1.8,7.3,1.8
	c4.8,0,8.6-1.9,11.3-5.6c2.7-3.7,4.1-8.5,4.1-14.2c0-5.5-1.4-10-4.1-13.5C586.9,157.9,583.1,156.1,578.2,156.1z M581.6,183.7
	c-1.4,2-3.3,3-5.8,3c-2.9,0-5-1-6.4-3.1s-2.1-4.7-2.1-7.8c0-2.7,0.3-4.8,1-6.5c1.3-3.2,3.7-4.7,7.2-4.7s5.8,1.6,7.1,4.8
	c0.7,1.7,1,3.9,1,6.5C583.7,179.1,583,181.7,581.6,183.7z M26.9,87.5l13.2-13.4l40.3,57.1h35.1l-56.4-77l53.7-53.8H77.4L26.9,54.3
	V0.4H0v130.8h26.9V87.5z M155.5,104.3h48.2l8.6,26.9H242L195.7,0.4h-30.9l-46.7,130.8h28.6L155.5,104.3z M180,30.3l16.5,51.5H163
	L180,30.3z M282.5,79.9h26.7c7.6,0,12.8,1.4,15.6,4.2c2.8,2.8,4.2,8.3,4.3,16.7l0.2,12.2c0.1,3.8,0.4,7.6,1.2,11.3
	c0.4,1.8,0.9,4.1,1.8,7h30.2V128c-2.6-1.6-4.3-4.1-5-7.5c-0.5-2.1-0.7-6.2-0.7-12.2v-8.8c0-9.2-1.3-16-3.8-20.5s-6.8-7.9-12.8-10.3
	c7.2-2.5,12.4-6.7,15.5-12.7s4.7-12.1,4.7-18.3c0-5.1-0.8-9.7-2.4-13.8c-1.6-4-3.8-7.7-6.6-11c-3.3-4-7.4-7.1-12.2-9.1
	c-4.8-2.1-11.7-3.2-20.6-3.4H256v130.8h26.7V79.9H282.5z M282.5,23.1h30.2c5.6,0,9.8,0.8,12.6,2.3c5,2.7,7.5,8,7.5,16
	c0,7.3-2.6,12.2-7.8,14.7c-2.9,1.4-7.3,2.1-13.1,2.1h-29.4L282.5,23.1L282.5,23.1z M491.7,144h-10.4l0,0H0v49.5h516.4v-8.9h-24.8
	L491.7,144L491.7,144z M408,42.7c0-2.5,0-6.1-0.1-10.7s-0.1-8.1-0.1-10.6l24.6,109.8H459l24.8-109.8c0,2.5,0,6-0.1,10.6
	s-0.1,8.2-0.1,10.7v88.5h25.5V0.4h-39.3l-23.6,102.9L422.3,0.4h-39.8v130.8H408V42.7z"/>
</svg>
