<!-- Generator: Adobe Illustrator 24.0.3, SVG Export Plug-In  -->
<svg version="1.1" xmlns="http://www.w3.org/2000/svg" xmlns:xlink="http://www.w3.org/1999/xlink" x="0px" y="0px"
	 width="18.789px" height="22.677px" viewBox="0 0 18.789 22.677" style="enable-background:new 0 0 18.789 22.677;"
	 xml:space="preserve">
<style type="text/css">
	.st0{fill:#FFFFFF;}
</style>
<defs>
</defs>
<g>
	<path class="st0" d="M11.47,14.873c-0.182,0-0.378,0.087-0.563,0.278v3.821c0.185,0.182,0.381,0.28,0.563,0.28
		c0.328,0,0.496-0.28,0.496-0.849v-2.671C11.966,15.17,11.798,14.873,11.47,14.873"/>
	<path class="st0" d="M15.686,14.873c-0.378,0-0.569,0.294-0.569,0.875v0.575h1.132v-0.575C16.25,15.17,16.062,14.873,15.686,14.873
		"/>
	<g>
		<path class="st0" d="M7.425,0H6.139L5.27,3.336L4.367,0H3.03c0.266,0.788,0.547,1.581,0.816,2.369
			c0.406,1.183,0.662,2.08,0.776,2.685v3.442h1.27V5.057L7.425,0z M10.826,6.447V4.23c0-0.678-0.115-1.172-0.359-1.491
			c-0.317-0.432-0.762-0.65-1.337-0.65c-0.572,0-1.018,0.219-1.337,0.65C7.546,3.055,7.434,3.552,7.434,4.23v2.217
			c0,0.676,0.112,1.172,0.359,1.491C8.115,8.367,8.558,8.586,9.13,8.586c0.575,0,1.02-0.219,1.337-0.648
			C10.711,7.619,10.826,7.12,10.826,6.447 M9.679,6.663c0,0.586-0.177,0.88-0.547,0.88c-0.373,0-0.547-0.294-0.547-0.88V4
			c0-0.586,0.174-0.877,0.547-0.877c0.37,0,0.547,0.292,0.547,0.877V6.663z M15.072,8.499V2.167h-1.149v4.841
			c-0.252,0.359-0.499,0.535-0.723,0.535c-0.157,0-0.247-0.093-0.272-0.269c-0.014-0.039-0.014-0.179-0.014-0.448V2.167h-1.146
			v5.006c0,0.448,0.042,0.751,0.101,0.942c0.118,0.32,0.373,0.471,0.746,0.471c0.415,0,0.858-0.255,1.309-0.779v0.692
			C13.923,8.499,15.072,8.499,15.072,8.499z"/>
		<path class="st0" d="M18.461,11.692c-0.23-0.998-1.046-1.732-2.035-1.844C14.1,9.587,11.737,9.587,9.39,9.587
			c-2.349,0-4.704,0-7.033,0.261c-0.981,0.112-1.797,0.847-2.029,1.844C0,13.116,0,14.669,0,16.129c0,1.466,0,3.022,0.325,4.44
			c0.23,1.001,1.046,1.735,2.029,1.85c2.329,0.258,4.687,0.258,7.036,0.258c2.346,0,4.706,0,7.033-0.258
			c0.987-0.115,1.802-0.849,2.032-1.85c0.328-1.418,0.334-2.974,0.334-4.44C18.789,14.669,18.789,13.116,18.461,11.692 M5.36,12.973
			H3.997v7.224H2.736v-7.224H1.402V11.79H5.36V12.973z M8.785,20.196H7.652v-0.684c-0.451,0.516-0.88,0.768-1.298,0.768
			c-0.364,0-0.619-0.151-0.729-0.465c-0.067-0.188-0.104-0.488-0.104-0.931v-4.953h1.132v4.614c0,0.266,0,0.409,0.011,0.443
			c0.031,0.174,0.115,0.263,0.266,0.263c0.227,0,0.465-0.174,0.72-0.527v-4.793h1.132C8.785,13.931,8.785,20.196,8.785,20.196z
			 M13.102,18.316c0,0.58-0.039,0.992-0.115,1.264c-0.149,0.465-0.454,0.701-0.908,0.701c-0.406,0-0.79-0.224-1.172-0.69v0.605
			H9.769v-8.409h1.135v2.741c0.37-0.448,0.757-0.678,1.172-0.678c0.454,0,0.76,0.238,0.908,0.704
			c0.076,0.252,0.115,0.664,0.115,1.256v2.506H13.102z M17.388,17.273h-2.271v1.107c0,0.58,0.191,0.875,0.58,0.875
			c0.28,0,0.443-0.154,0.51-0.457c0.011-0.059,0.022-0.311,0.022-0.765h1.16v0.165c0,0.367-0.017,0.619-0.028,0.734
			c-0.039,0.252-0.126,0.482-0.263,0.678c-0.32,0.446-0.779,0.67-1.376,0.67c-0.591,0-1.046-0.213-1.374-0.642
			c-0.241-0.311-0.362-0.807-0.362-1.472v-2.189c0-0.67,0.104-1.166,0.35-1.474c0.328-0.432,0.776-0.645,1.357-0.645
			c0.569,0,1.018,0.213,1.343,0.645c0.235,0.308,0.35,0.804,0.35,1.474L17.388,17.273L17.388,17.273z"/>
	</g>
</g>
</svg>