<!-- Generator: Adobe Illustrator 24.0.3, SVG Export Plug-In  -->
<svg version="1.1" xmlns="http://www.w3.org/2000/svg" xmlns:xlink="http://www.w3.org/1999/xlink" x="0px" y="0px"
	 width="18.394px" height="18.395px" viewBox="0 0 18.394 18.395" style="enable-background:new 0 0 18.394 18.395;"
	 xml:space="preserve">
<style type="text/css">
	.st0{fill:#262626;}
</style>
<defs>
</defs>
<path class="st0" d="M9.192,3.186c-3.313,0-6.008,2.695-6.008,6.007c0,3.313,2.695,6.008,6.008,6.008
	c3.312,0,6.008-2.695,6.008-6.008C15.2,5.881,12.505,3.186,9.192,3.186z M9.192,13.571c-2.409,0-4.369-1.964-4.369-4.378
	c0-2.415,1.96-4.379,4.369-4.379c2.414,0,4.378,1.964,4.378,4.379C13.571,11.607,11.607,13.571,9.192,13.571z M14.876,2.401
	c-0.632,0-1.147,0.514-1.147,1.146c0,0.633,0.514,1.147,1.147,1.147s1.147-0.515,1.147-1.147
	C16.023,2.915,15.509,2.401,14.876,2.401z M13.934,0H4.46C2.001,0,0,2.001,0,4.461v9.473c0,2.459,2.001,4.46,4.46,4.46h9.474
	c2.459,0,4.46-2.001,4.46-4.46V4.461C18.394,2.001,16.393,0,13.934,0z M16.904,13.935c0,1.637-1.333,2.97-2.97,2.97H4.46
	c-1.638,0-2.971-1.332-2.971-2.97V4.461c0-1.638,1.332-2.971,2.971-2.971h9.474c1.638,0,2.97,1.333,2.97,2.971V13.935z"/>
</svg>