<!-- Generator: Adobe Illustrator 24.0.3, SVG Export Plug-In  -->
<svg version="1.1" xmlns="http://www.w3.org/2000/svg" xmlns:xlink="http://www.w3.org/1999/xlink" x="0px" y="0px"
	 width="22.677px" height="22.678px" viewBox="0 0 22.677 22.678" style="enable-background:new 0 0 22.677 22.678;"
	 xml:space="preserve">
<style type="text/css">
	.st0{fill:#FFFFFF;}
</style>
<defs>
</defs>
<path class="st0" d="M11.333,3.927c-4.084,0-7.407,3.323-7.407,7.406c0,4.084,3.323,7.407,7.407,7.407
	c4.084,0,7.407-3.323,7.407-7.407C18.739,7.25,15.417,3.927,11.333,3.927z M11.333,16.731c-2.97,0-5.387-2.422-5.387-5.398
	c0-2.977,2.416-5.399,5.387-5.399c2.977,0,5.398,2.422,5.398,5.399C16.731,14.309,14.309,16.731,11.333,16.731z M18.34,2.96
	c-0.78,0-1.414,0.634-1.414,1.413c0,0.78,0.634,1.415,1.414,1.415c0.78,0,1.414-0.635,1.414-1.415
	C19.754,3.594,19.12,2.96,18.34,2.96z M17.179,0H5.499C2.467,0,0,2.467,0,5.5v11.679c0,3.032,2.467,5.499,5.499,5.499h11.68
	c3.032,0,5.499-2.467,5.499-5.499V5.5C22.677,2.467,20.21,0,17.179,0z M20.84,17.179c0,2.018-1.643,3.661-3.662,3.661H5.499
	c-2.02,0-3.662-1.643-3.662-3.661V5.5c0-2.02,1.643-3.662,3.662-3.662h11.68c2.019,0,3.662,1.643,3.662,3.662V17.179z"/>
</svg>