<!-- Generator: Adobe Illustrator 24.0.3, SVG Export Plug-In  -->
<svg version="1.1" xmlns="http://www.w3.org/2000/svg" xmlns:xlink="http://www.w3.org/1999/xlink" x="0px" y="0px"
	 width="280.272px" height="81.045px" viewBox="0 0 280.272 81.045" style="enable-background:new 0 0 280.272 81.045;"
	 xml:space="preserve">
<style type="text/css">
	.st0{fill:#FFFFFF;}
</style>
<defs>
</defs>
<g>
	<g>
		<path class="st0" d="M69.663,59.458c-1.903,4.22-2.815,6.102-5.267,9.831c-3.42,5.207-8.24,11.688-14.213,11.744
			c-5.31,0.049-6.672-3.456-13.876-3.416c-7.203,0.04-8.707,3.477-14.016,3.428c-5.973-0.055-10.542-5.908-13.963-11.112
			c-9.564-14.558-10.564-31.64-4.665-40.721C7.855,22.757,14.467,18.98,20.686,18.98c6.332,0,10.312,3.47,15.547,3.47
			c5.079,0,8.172-3.476,15.492-3.476c5.533,0,11.395,3.013,15.573,8.22C53.61,34.693,55.834,54.234,69.663,59.458L69.663,59.458z"/>
		<path class="st0" d="M46.171,13.158C48.831,9.745,50.85,4.927,50.117,0c-4.345,0.3-9.426,3.064-12.393,6.667
			c-2.693,3.27-4.916,8.12-4.051,12.834C38.416,19.647,43.324,16.814,46.171,13.158L46.171,13.158z"/>
	</g>
	<g>
		<path class="st0" d="M93.942,36.321c0,2.954-2.25,5.344-5.767,5.344c-3.375,0-5.625-2.391-5.555-5.344
			c-0.07-3.094,2.18-5.415,5.626-5.415S93.871,33.227,93.942,36.321z M82.902,80.27V45.884H93.59V80.27H82.902z"/>
		<path class="st0" d="M111.659,41.877H98.931v-9.001h36.426v9.001h-12.939V80.27h-10.759V41.877z"/>
		<path class="st0" d="M169.319,69.23c0,4.5,0.141,8.158,0.28,11.04h-9.281l-0.492-4.852h-0.211
			c-1.336,2.109-4.571,5.626-10.76,5.626c-6.962,0-12.096-4.36-12.096-14.979V45.884h10.76v18.494c0,4.993,1.618,8.016,5.345,8.016
			c2.954,0,4.642-2.039,5.345-3.726c0.281-0.633,0.351-1.477,0.351-2.32V45.884h10.76V69.23z"/>
		<path class="st0" d="M177.894,56.854c0-4.29-0.141-7.946-0.281-10.97h9.281l0.492,4.711h0.212
			c1.405-2.18,4.921-5.484,10.617-5.484c7.033,0,12.306,4.641,12.306,14.768V80.27h-10.688V61.214c0-4.431-1.546-7.455-5.414-7.455
			c-2.954,0-4.713,2.041-5.416,4.009c-0.28,0.704-0.421,1.688-0.421,2.673V80.27h-10.688V56.854z"/>
		<path class="st0" d="M227.324,66.487c0.353,4.431,4.713,6.541,9.705,6.541c3.656,0,6.609-0.492,9.493-1.406l1.406,7.242
			c-3.516,1.406-7.806,2.181-12.447,2.181c-11.673,0-18.354-6.821-18.354-17.58c0-8.721,5.416-18.353,17.369-18.353
			c11.111,0,15.329,8.648,15.329,17.158c0,1.828-0.21,3.445-0.35,4.218H227.324z M239.913,59.174c0-2.602-1.126-6.961-6.048-6.961
			c-4.501,0-6.329,4.078-6.611,6.961H239.913z"/>
		<path class="st0" d="M256.152,70.918c1.97,1.196,6.049,2.602,9.213,2.602c3.234,0,4.57-1.126,4.57-2.883
			c0-1.758-1.055-2.603-5.062-3.938c-7.102-2.391-9.845-6.258-9.775-10.267c0-6.469,5.485-11.321,13.994-11.321
			c4.008,0,7.595,0.914,9.704,1.969l-1.899,7.385c-1.547-0.845-4.5-1.971-7.453-1.971c-2.602,0-4.078,1.057-4.078,2.815
			c0,1.616,1.336,2.46,5.555,3.936c6.54,2.25,9.282,5.556,9.353,10.619c0,6.398-5.062,11.181-14.907,11.181
			c-4.501,0-8.509-1.056-11.111-2.462L256.152,70.918z"/>
	</g>
</g>
</svg>