<!-- Generator: Adobe Illustrator 24.0.3, SVG Export Plug-In  -->
<svg version="1.1" xmlns="http://www.w3.org/2000/svg" xmlns:xlink="http://www.w3.org/1999/xlink" x="0px" y="0px"
	 width="16.739px" height="20.202px" viewBox="0 0 16.739 20.202" style="enable-background:new 0 0 16.739 20.202;"
	 xml:space="preserve">
<style type="text/css">
	.st0{fill:#262626;}
</style>
<defs>
</defs>
<g>
	<path class="st0" d="M10.219,13.25c-0.162,0-0.337,0.077-0.502,0.247v3.404c0.165,0.162,0.34,0.25,0.502,0.25
		c0.292,0,0.442-0.25,0.442-0.757v-2.38C10.661,13.515,10.511,13.25,10.219,13.25"/>
	<path class="st0" d="M13.975,13.25c-0.337,0-0.507,0.262-0.507,0.779v0.512h1.009v-0.512C14.477,13.515,14.309,13.25,13.975,13.25"
		/>
	<g>
		<path class="st0" d="M6.615,0H5.469L4.695,2.972L3.891,0H2.7c0.237,0.702,0.487,1.409,0.727,2.11
			c0.362,1.054,0.589,1.853,0.692,2.392v3.067h1.131V4.505L6.615,0z M9.644,5.744V3.768c0-0.604-0.102-1.044-0.32-1.328
			C9.043,2.055,8.645,1.86,8.134,1.86c-0.51,0-0.907,0.195-1.191,0.579c-0.22,0.282-0.32,0.724-0.32,1.328v1.975
			c0,0.602,0.1,1.044,0.32,1.328C7.23,7.454,7.624,7.649,8.134,7.649c0.512,0,0.909-0.195,1.191-0.577
			C9.542,6.788,9.644,6.343,9.644,5.744 M8.623,5.936c0,0.522-0.157,0.784-0.487,0.784c-0.332,0-0.487-0.262-0.487-0.784V3.564
			c0-0.522,0.155-0.782,0.487-0.782c0.33,0,0.487,0.26,0.487,0.782V5.936z M13.428,7.572V1.93h-1.024v4.313
			c-0.225,0.32-0.444,0.477-0.644,0.477c-0.14,0-0.22-0.082-0.242-0.239c-0.012-0.035-0.012-0.16-0.012-0.4V1.93h-1.021v4.46
			c0,0.4,0.037,0.669,0.09,0.839c0.105,0.285,0.332,0.419,0.664,0.419c0.37,0,0.764-0.227,1.166-0.694v0.617H13.428z"/>
		<path class="st0" d="M16.447,10.416c-0.205-0.889-0.931-1.543-1.813-1.643c-2.073-0.232-4.178-0.232-6.268-0.232
			c-2.092,0-4.19,0-6.265,0.232c-0.874,0.1-1.601,0.754-1.808,1.643C0,11.685,0,13.068,0,14.369c0,1.306,0,2.692,0.29,3.955
			c0.205,0.892,0.931,1.546,1.808,1.648c2.075,0.229,4.175,0.229,6.268,0.229c2.09,0,4.193,0,6.266-0.229
			c0.879-0.103,1.606-0.757,1.811-1.648c0.292-1.263,0.297-2.649,0.297-3.955C16.739,13.068,16.739,11.685,16.447,10.416
			 M4.775,11.557H3.561v6.435H2.437v-6.435H1.249v-1.054h3.526V11.557z M7.826,17.992H6.818v-0.609
			c-0.402,0.459-0.784,0.684-1.156,0.684c-0.325,0-0.552-0.135-0.649-0.415c-0.06-0.167-0.092-0.434-0.092-0.829v-4.413h1.009v4.11
			c0,0.237,0,0.365,0.01,0.394c0.027,0.155,0.102,0.235,0.237,0.235c0.202,0,0.414-0.155,0.642-0.47v-4.27h1.009V17.992z
			 M11.672,16.317c0,0.517-0.035,0.884-0.103,1.126c-0.132,0.414-0.404,0.624-0.809,0.624c-0.362,0-0.704-0.2-1.044-0.614v0.539
			H8.703v-7.491h1.011v2.442c0.33-0.4,0.674-0.604,1.044-0.604c0.404,0,0.677,0.212,0.809,0.627
			c0.068,0.224,0.103,0.592,0.103,1.119v2.233H11.672z M15.49,15.388h-2.023v0.986c0,0.517,0.17,0.779,0.517,0.779
			c0.25,0,0.394-0.138,0.454-0.407c0.01-0.053,0.02-0.277,0.02-0.682h1.034v0.148c0,0.327-0.015,0.552-0.025,0.654
			c-0.035,0.225-0.113,0.429-0.235,0.604c-0.285,0.397-0.694,0.597-1.226,0.597c-0.527,0-0.931-0.19-1.224-0.572
			c-0.215-0.277-0.322-0.719-0.322-1.311v-1.95c0-0.597,0.093-1.039,0.312-1.313c0.292-0.385,0.692-0.574,1.209-0.574
			c0.507,0,0.907,0.19,1.196,0.574c0.21,0.275,0.312,0.717,0.312,1.313V15.388L15.49,15.388z"/>
	</g>
</g>
</svg>