<!-- Generator: Adobe Illustrator 24.0.3, SVG Export Plug-In  -->
<svg version="1.1" xmlns="http://www.w3.org/2000/svg" xmlns:xlink="http://www.w3.org/1999/xlink" x="0px" y="0px"
	 width="19.978px" height="16.238px" viewBox="0 0 19.978 16.238" style="enable-background:new 0 0 19.978 16.238;"
	 xml:space="preserve">
<style type="text/css">
	.st0{fill:#262626;}
</style>
<defs>
</defs>
<path class="st0" d="M19.978,1.922c-0.735,0.329-1.528,0.548-2.354,0.645c0.845-0.51,1.496-1.309,1.799-2.263
	c-0.793,0.464-1.67,0.806-2.605,0.993C16.077,0.496,15.007,0,13.833,0C11.57,0,9.731,1.838,9.731,4.101
	c0,0.316,0.039,0.632,0.11,0.929C6.429,4.862,3.412,3.231,1.393,0.748C1.039,1.354,0.839,2.057,0.839,2.811
	c0,1.419,0.722,2.677,1.818,3.412C1.986,6.204,1.354,6.017,0.8,5.713v0.045c0,1.986,1.413,3.644,3.289,4.018
	C3.747,9.873,3.386,9.925,3.012,9.925c-0.265,0-0.522-0.026-0.774-0.071c0.522,1.625,2.038,2.812,3.83,2.844
	c-1.405,1.096-3.173,1.754-5.088,1.754c-0.335,0-0.658-0.019-0.98-0.058c1.812,1.161,3.966,1.844,6.281,1.844
	c7.538,0,11.659-6.249,11.659-11.666c0-0.174,0-0.355-0.006-0.529C18.734,3.463,19.43,2.741,19.978,1.922"/>
</svg>