<!-- Generator: Adobe Illustrator 24.0.3, SVG Export Plug-In  -->
<svg version="1.1" xmlns="http://www.w3.org/2000/svg" xmlns:xlink="http://www.w3.org/1999/xlink" x="0px" y="0px"
	 width="27.901px" height="22.677px" viewBox="0 0 27.901 22.677" style="enable-background:new 0 0 27.901 22.677;"
	 xml:space="preserve">
<style type="text/css">
	.st0{fill:#FFFFFF;}
</style>
<defs>
</defs>
<path class="st0" d="M27.901,2.684c-1.026,0.459-2.135,0.765-3.287,0.901c1.18-0.712,2.09-1.828,2.513-3.161
	c-1.108,0.648-2.333,1.126-3.639,1.387C22.453,0.693,20.958,0,19.318,0c-3.161,0-5.728,2.567-5.728,5.728
	c0,0.441,0.054,0.883,0.153,1.297C8.979,6.79,4.765,4.512,1.945,1.044C1.45,1.891,1.171,2.873,1.171,3.926
	c0,1.981,1.008,3.738,2.539,4.764C2.774,8.664,1.891,8.402,1.117,7.979v0.063c0,2.774,1.973,5.088,4.593,5.611
	c-0.477,0.135-0.982,0.207-1.504,0.207c-0.369,0-0.729-0.036-1.081-0.099c0.729,2.27,2.846,3.927,5.349,3.972
	c-1.963,1.531-4.431,2.449-7.106,2.449c-0.468,0-0.919-0.027-1.369-0.081c2.531,1.621,5.539,2.576,8.772,2.576
	c10.528,0,16.283-8.727,16.283-16.292c0-0.243,0-0.495-0.009-0.738C26.163,4.836,27.136,3.827,27.901,2.684"/>
</svg>